<svg width="272" height="272" viewBox="0 0 272 272" fill="none" xmlns="http://www.w3.org/2000/svg">
<path d="M60.2952 235.924C-72.7047 138.924 55.7952 -81.0763 217.795 40.9237" stroke="#395886" stroke-width="10"/>
<path d="M50.2953 232.138C50.5803 232.338 50.8583 232.543 51.1278 232.75C44.7703 225.212 63 232.5 63 232.5C63 232.5 69.5905 246.564 62.2953 242.282C55 238 56.5 238.5 56.5 238.5C56.5 238.5 48.2953 230.782 44.7953 227.282C41.2953 223.782 34.7953 215.782 34.7953 215.782L31.3396 210.497C29.2981 209.702 27.6344 209.161 25.2953 205.782C20.7953 199.282 17.7953 195.282 14.2953 187.782C11.4774 181.744 12.2246 174.733 12.6229 172.23C12.4302 171.605 12.0921 170.488 11.6917 169.075L8.29526 162.282C7.31895 157.986 6.45652 150.62 6.57302 151.282C6.68952 151.944 5.79526 141.282 5.79526 141.282V126.782V119.782C5.79526 119.782 6.01742 118.782 6.29522 114.282C6.57302 109.782 10.0413 103.302 13.7953 93.4237C17.6422 83.3005 18.6352 72.1888 24.7953 63.2818C28.7347 57.5858 30.5527 56.8288 35.2953 51.7818C43.0575 43.5213 40.7016 42.549 44.7953 33.7818C49.9807 22.6763 67.439 23.8924 78.7953 19.2818C87.6178 15.7 98.2953 12.7819 102.295 11.7818C106.295 10.7818 108.651 10.0504 112.795 9.28184C123.37 7.32079 127.563 8.58191 138.295 9.28186C147.585 9.8877 153.322 12.8021 162.295 15.2818C173.515 18.3826 178.334 17.2588 188.295 23.2818C193.4 26.3687 197.293 28.8354 200.262 30.8023C201.769 31.1252 202.795 31.2818 202.795 31.2818C202.795 31.2818 203.794 32.5192 205.271 34.2656C209.795 37.5743 209.795 38.2818 209.795 38.2818C215.653 43.9444 213.017 36.4238 215.295 38.9238C217.573 41.4238 219 37 220 37C220.542 37 221.483 38.3481 222 40.5L223 43.5C223.375 45.1164 225.5 52 225.5 52C225.5 52 219.449 48.0028 215 44.5C212.276 42.3558 207.973 37.4594 205.271 34.2656C203.995 33.3323 202.359 32.192 200.262 30.8023C197.765 30.2671 193.948 29.2751 191.295 27.7818C187.251 25.5052 184.932 23.4803 180.295 23.2818C179.71 23.2568 179.351 23.0966 178.795 23.2818C177.128 23.8376 179.2 26.0718 178.795 27.7818C177.741 32.2338 169.795 35.2818 169.795 35.2818C169.795 35.2818 161.435 39.1378 155.795 40.7818C152.521 41.7363 150.224 44.5282 147.295 42.7818C145.481 41.7002 144.508 40.3831 144.295 38.2818C144.108 36.4389 145.091 35.4953 145.795 33.7818C147.259 30.2196 149.456 28.8925 150.795 25.2818C151.635 23.0174 152.808 21.642 152.295 19.2818C151.904 17.4817 151.167 16.5109 149.795 15.2818C148.494 14.1166 147.411 13.9445 145.795 13.2818C136.755 9.57429 130.55 13.7131 120.795 14.2818C115.129 14.6123 111.608 13.2849 106.295 15.2818C103.348 16.3895 101.291 16.8469 99.2953 19.2818C97.686 21.2449 96.6206 22.7494 96.7953 25.2818C96.9455 27.4598 97.5675 28.9474 99.2953 30.2818C101.175 31.7338 102.978 31.8051 105.295 31.2818C107.62 30.7568 108.448 29.2875 110.295 27.7818C112.864 25.6885 113.046 22.4317 116.295 21.7818C117.444 21.5521 118.142 21.5766 119.295 21.7818C121.802 22.2279 123.055 23.4238 124.795 25.2818C127.624 28.3015 127.916 31.1617 128.295 35.2818C128.438 36.8374 128.295 38.7818 128.295 39.2818C128.295 39.7818 118.742 38.1509 112.795 39.2818C108.549 40.0894 106.036 40.6162 102.295 42.7818C97.5156 45.549 96.0746 48.7547 92.2953 52.7818C89.0773 56.2109 87.8335 58.6843 84.2953 61.7818C80.5873 65.0281 77.8534 65.9857 73.7953 68.7818C71.8326 70.1342 70.3514 70.4764 68.7953 72.2818C66.4971 74.9482 66.8172 77.4133 65.7953 80.7818C65.1489 82.9123 65.0175 85.7818 64.2953 86.2818C63.573 86.7818 64.684 80.822 63.2953 77.7818C62.1421 75.2576 61.1621 73.7309 58.7953 72.2818C56.4109 70.822 54.5353 70.2265 51.7953 70.7818C48.0063 71.5498 47.0065 74.6107 44.7953 77.7818C42.2436 81.4412 41.1544 83.9041 40.2953 88.2818C39.5056 92.3056 39.1866 94.8341 40.2953 98.7818C41.2644 102.233 42.4103 104.106 44.7953 106.782C47.6058 109.935 49.7721 111.494 53.7953 112.782C58.2586 114.21 61.109 112.782 65.7953 112.782C68.9195 112.782 70.8229 111.82 73.7953 112.782C76.2174 113.566 77.2763 114.731 79.2953 116.282C83.4619 119.482 84.7259 122.426 88.2953 126.282C93.0801 131.45 95.162 135.055 100.795 139.282C107.081 143.999 118.795 148.282 118.795 148.282C118.795 148.282 126.564 150.856 130.295 154.282C132.339 156.159 134.481 157.025 134.795 159.782C135.054 162.053 133.858 163.259 132.795 165.282C130.992 168.713 128.181 169.396 126.295 172.782C124.311 176.344 123.295 182.782 123.295 182.782C123.295 182.782 122.394 187.359 120.795 189.782C118.729 192.912 113.295 195.782 113.295 195.782L100.795 204.782C100.795 204.782 93.9863 209.512 90.2953 213.282C87.9688 215.658 86.4036 216.871 84.7953 219.782C83.3019 222.484 82.2953 227.282 82.2953 227.282L84.7953 235.282C84.7953 235.282 80.2934 232.2 77.7953 229.782C74.9027 226.982 73.4033 225.211 71.2953 221.782C67.9317 216.31 67.5445 212.462 65.7953 206.282C64.0013 199.944 62.2953 189.782 62.2953 189.782C62.2953 189.782 61.4613 183.889 60.2953 180.282C58.0903 173.46 54.5888 170.65 51.2953 164.282C48.6071 159.085 44.7953 150.782 44.7953 150.782C44.7953 150.782 42.2315 143.193 42.7953 138.282C43.3742 133.238 47.2371 127.54 47.7953 126.282C48.3534 125.023 52.0175 120.782 50.2953 118.282C48.573 115.782 46.8342 115.033 44.7953 112.782C42.2775 110.002 40.8846 108.397 38.7953 105.282C35.2928 100.06 33.4961 96.8354 31.7953 90.7818C30.9355 87.7217 30.6266 85.9432 30.2953 82.7818C29.8678 78.7037 30.2953 72.2818 30.2953 72.2818C30.2953 72.2818 30.0175 69.0755 28.7953 68.7818C27.573 68.4882 23.4096 72.9328 21.7953 76.4238C18.4965 83.5571 17.7639 86.6469 14.7953 93.9238C11.9263 100.956 11.2747 106.832 9.79526 114.282C7.81602 124.248 8.94107 130.122 8.79526 140.282C8.70839 146.334 8.139 149.764 8.79526 155.782C9.25245 159.974 10.6735 165.481 11.6917 169.075L12.7953 171.282C12.7953 171.282 12.7193 171.624 12.6229 172.23C12.7327 172.586 12.7953 172.782 12.7953 172.782L19.2953 189.782L26.2953 202.782L31.3396 210.497C33.2256 211.231 35.434 212.18 38.7953 215.782C45.7953 223.282 45.2953 228.638 50.2953 232.138Z" fill="#395886"/>
<path d="M223 43.5C223.375 45.1164 225.5 52 225.5 52C225.5 52 219.449 48.0028 215 44.5C210.787 41.1833 202.795 31.2818 202.795 31.2818C202.795 31.2818 195.549 30.1763 191.295 27.7818C187.251 25.5052 184.932 23.4803 180.295 23.2818C179.71 23.2568 179.351 23.0966 178.795 23.2818C177.128 23.8376 179.2 26.0718 178.795 27.7818C177.741 32.2338 169.795 35.2818 169.795 35.2818C169.795 35.2818 161.435 39.1378 155.795 40.7818C152.521 41.7363 150.224 44.5282 147.295 42.7818C145.481 41.7002 144.508 40.3831 144.295 38.2818C144.108 36.4389 145.091 35.4953 145.795 33.7818C147.259 30.2196 149.456 28.8925 150.795 25.2818C151.635 23.0174 152.808 21.642 152.295 19.2818C151.904 17.4817 151.167 16.5109 149.795 15.2818C148.494 14.1166 147.411 13.9445 145.795 13.2818C136.755 9.57429 130.55 13.7131 120.795 14.2818C115.129 14.6123 111.608 13.2849 106.295 15.2818C103.348 16.3895 101.291 16.8469 99.2953 19.2818C97.686 21.2449 96.6206 22.7494 96.7953 25.2818C96.9455 27.4598 97.5675 28.9474 99.2953 30.2818C101.175 31.7338 102.978 31.8051 105.295 31.2818C107.62 30.7568 108.448 29.2875 110.295 27.7818C112.864 25.6885 113.046 22.4317 116.295 21.7818C117.444 21.5521 118.142 21.5766 119.295 21.7818C121.802 22.2279 123.055 23.4238 124.795 25.2818C127.624 28.3015 127.916 31.1617 128.295 35.2818C128.438 36.8374 128.295 38.7818 128.295 39.2818C128.295 39.7818 118.742 38.1509 112.795 39.2818C108.549 40.0894 106.036 40.6162 102.295 42.7818C97.5156 45.549 96.0746 48.7547 92.2953 52.7818C89.0773 56.2109 87.8335 58.6843 84.2953 61.7818C80.5873 65.0281 77.8534 65.9857 73.7953 68.7818C71.8326 70.1342 70.3514 70.4764 68.7953 72.2818C66.4971 74.9483 66.8172 77.4133 65.7953 80.7818C65.1489 82.9123 65.0175 85.7818 64.2953 86.2818C63.573 86.7818 64.684 80.822 63.2953 77.7818C62.1421 75.2576 61.1621 73.7309 58.7953 72.2818C56.4109 70.822 54.5353 70.2265 51.7953 70.7818C48.0063 71.5498 47.0065 74.6107 44.7953 77.7818C42.2436 81.4412 41.1544 83.9041 40.2953 88.2818C39.5056 92.3056 39.1866 94.8341 40.2953 98.7818C41.2644 102.233 42.4103 104.106 44.7953 106.782C47.6058 109.935 49.7721 111.494 53.7953 112.782C58.2586 114.21 61.109 112.782 65.7953 112.782C68.9195 112.782 70.8229 111.82 73.7953 112.782C76.2174 113.566 77.2763 114.731 79.2953 116.282C83.4619 119.482 84.7259 122.427 88.2953 126.282C93.0801 131.45 95.162 135.055 100.795 139.282C107.081 143.999 118.795 148.282 118.795 148.282C118.795 148.282 126.564 150.856 130.295 154.282C132.339 156.159 134.481 157.024 134.795 159.782C135.054 162.053 133.858 163.259 132.795 165.282C130.992 168.713 128.181 169.396 126.295 172.782C124.311 176.344 123.295 182.782 123.295 182.782C123.295 182.782 122.394 187.359 120.795 189.782C118.729 192.912 113.295 195.782 113.295 195.782L100.795 204.782C100.795 204.782 93.9863 209.512 90.2953 213.282C87.9688 215.658 86.4036 216.871 84.7953 219.782C83.3019 222.484 82.2953 227.282 82.2953 227.282L84.7953 235.282C84.7953 235.282 80.2934 232.2 77.7953 229.782C74.9027 226.982 73.4033 225.211 71.2953 221.782C67.9317 216.31 67.5445 212.462 65.7953 206.282C64.0013 199.944 62.2953 189.782 62.2953 189.782C62.2953 189.782 61.4613 183.889 60.2953 180.282C58.0903 173.46 54.5888 170.65 51.2953 164.282C48.6071 159.085 44.7953 150.782 44.7953 150.782C44.7953 150.782 42.2315 143.193 42.7953 138.282C43.3742 133.238 47.2371 127.54 47.7953 126.282C48.3534 125.023 52.0175 120.782 50.2953 118.282C48.573 115.782 46.8342 115.033 44.7953 112.782C42.2775 110.002 40.8846 108.397 38.7953 105.282C35.2928 100.06 33.4961 96.8354 31.7953 90.7818C30.9355 87.7217 30.6266 85.9432 30.2953 82.7818C29.8678 78.7037 30.2953 72.2818 30.2953 72.2818C30.2953 72.2818 30.0175 69.0755 28.7953 68.7818C27.573 68.4882 23.4096 72.9328 21.7953 76.4238C18.4965 83.5571 17.7639 86.6469 14.7953 93.9238C11.9263 100.956 11.2747 106.832 9.79526 114.282C7.81602 124.248 8.94107 130.122 8.79526 140.282C8.70839 146.334 8.139 149.764 8.79526 155.782C9.53468 162.562 12.7953 172.782 12.7953 172.782L19.2953 189.782L26.2953 202.782L34.7953 215.782C34.7953 215.782 41.2953 223.782 44.7953 227.282C48.2953 230.782 56.5 238.5 56.5 238.5C56.5 238.5 55 238 62.2953 242.282C69.5905 246.564 63 232.5 63 232.5C63 232.5 44.4591 225.088 51.2953 232.946C58.1314 240.804 55.2953 235.638 50.2953 232.138C45.2953 228.638 45.7953 223.282 38.7953 215.782C31.7953 208.282 29.7953 212.282 25.2953 205.782C20.7953 199.282 17.7953 195.282 14.2953 187.782C10.7953 180.282 12.7953 171.282 12.7953 171.282L8.29526 162.282C7.31895 157.986 6.45652 150.62 6.57302 151.282C6.68952 151.944 5.79526 141.282 5.79526 141.282V126.782V119.782C5.79526 119.782 6.01742 118.782 6.29522 114.282C6.57302 109.782 10.0413 103.302 13.7953 93.4237C17.6422 83.3005 18.6352 72.1888 24.7953 63.2818C28.7347 57.5858 30.5527 56.8288 35.2953 51.7818C43.0575 43.5213 40.7016 42.549 44.7953 33.7818C49.9807 22.6763 67.439 23.8924 78.7953 19.2818C87.6178 15.7 98.2953 12.7819 102.295 11.7818C106.295 10.7818 108.651 10.0504 112.795 9.28184C123.37 7.32079 127.563 8.58191 138.295 9.28186C147.585 9.8877 153.322 12.8021 162.295 15.2818C173.515 18.3826 178.334 17.2588 188.295 23.2818C209.795 36.2818 209.795 38.2818 209.795 38.2818C215.653 43.9444 213.017 36.4238 215.295 38.9238C217.573 41.4238 219 37 220 37C220.542 37 221.483 38.3481 222 40.5M223 43.5C223 43.5 222 41 222 40.5M223 43.5L222 40.5" stroke="#395886"/>
<path d="M49.5026 255.722C16.0026 255.722 20.5026 227.222 20.5026 227.222C20.5026 227.222 19.2067 222.435 16.0026 224.222C12.7985 226.009 13.0026 233.722 13.0026 233.722C13.0026 233.722 12.911 248.149 17.5026 255.722C22.3123 263.654 27.5 266 34 268.5C40.5 271 53.9331 271.067 65.5026 269.222C78.7978 267.102 98.0026 257.722 98.0026 257.722C98.0026 257.722 120.102 247.659 133.503 238.722C150.528 227.366 159.941 219.577 175.003 205.722C185.572 195.998 195.503 183.722 200.503 180.222C205.503 176.722 213.707 178.815 221.503 175.722C231.319 171.827 235.719 168.369 243.003 160.722C251.321 151.987 254.445 144.889 259.003 133.722C264.55 120.129 266.603 111.836 268.003 97.2216C269.589 80.6589 271.059 70.2187 265.003 54.7216C260.941 44.3298 258.791 36.903 249.503 30.7216C242.714 26.2039 227.756 19.8625 229.503 27.7216C229.976 29.8528 232.003 30.7216 233.003 31.7216C234.003 32.7216 241.003 39.2216 240.003 45.2216C239.003 51.2187 234.234 57.4194 229.01 64.2118L229.003 64.2216C217.309 79.4255 202.503 83.2216 189.003 92.7216C175.503 102.222 159.003 122.222 168.503 141.222C178.003 160.222 178.003 154.722 184.003 148.722C190.003 142.722 198.003 133.722 198.003 133.722C198.003 133.722 218.503 109.722 221.503 107.722C224.503 105.722 227.503 110.722 227.503 113.222C227.503 115.722 217.748 130.679 210.503 141.222C189.462 171.836 144.503 209.722 144.503 209.722C144.503 209.722 83.0026 255.722 49.5026 255.722Z" fill="#B1C9EF" stroke="#B1C9EF" stroke-width="2"/>
<path d="M130.893 261.141C123.925 262.35 114.893 263.641 112.893 264.141C110.893 264.641 109.893 267.141 112.893 268.141C115.893 269.141 127.787 268.141 130.893 268.141C134 268.141 143 267.5 146.393 267.141C149.787 266.782 167 263 172.893 261.141C185.76 257.082 208.424 243.197 224.893 224.641C237 211 245.566 195.859 249.5 185C251.437 179.654 252 177.359 252.5 176C253 174.641 256.606 166.714 255 166C254.286 165.683 252.5 168 252.5 168C252.5 168 250.223 171.361 248.393 174.641L248.09 175.186C239.797 190.057 234.53 199.503 222.893 212.141C205.565 230.961 193.282 239.276 169.893 249.641C155.376 256.074 146.652 258.408 130.893 261.141Z" fill="#395886" stroke="#395886" stroke-width="2"/>
<path d="M255 169C238 231 189 274.5 111 268.5" stroke="#395886" stroke-width="2"/>
<path d="M254.5 143C274.522 101.69 278 59 254.5 34" stroke="#B1C9EF" stroke-width="2"/>
<path d="M212 178C235.65 172.052 245.877 163.245 258 136.5" stroke="#B1C9EF" stroke-width="2"/>
</svg>
