<svg xmlns="http://www.w3.org/2000/svg" viewBox="0 0 750 500"><defs><style>.cls-1{fill:#aed483;}.cls-2{fill:#fff5db;}.cls-3{fill:#6b993d;}.cls-4{fill:#036;}.cls-5{fill:#ff5959;}.cls-6{fill:#001830;}.cls-7{fill:#fff;}.cls-8{fill:#4d6aff;}.cls-9{fill:#ffd24d;}</style></defs><g id="BACKGROUND"><path class="cls-1" d="M750,292.88c-35.07-31.18-119.12-52.3-135.27-75.61-18.06-26.07,5.63-56,31-79.3s54.72-49.11,48.15-77.41C686.09,27.1,629.35,7,577.67,6.63S476.83,19.83,426.74,28.16c-40.35,6.7-86.12,10-125.51-.91C279.11,21.14,264.47,11.15,251.56,0H55.36A240.79,240.79,0,0,0,25.77,25.71C2.05,50.78-7.72,84.84,16.42,111.36c14,15.35,37.51,26.39,50.18,42.23,17.92,22.4,10.59,50.06-4.73,73.27s-38,44.21-51.48,67.91S-5.93,347,17,367.38C52.24,398.68,125.57,395,176.52,415c46.38,18.18,6.2,57.26,93.22,85H599.81c73.74-8.08,132.13-39.9,150.19-66.44Z" transform="translate(0)"/><path class="cls-2" d="M611.31,253.22c-73.31-11.13-148.64-16.79-224-18.68-74-1.86-148.92,5.39-222.43,2-86.36-3.92-28.2-40.12,16.92-55.39,61.81-20.92,130.69-30.81,199.47-38.69q120.89-13.83,243.73-19c8.55-.35,23.07-1.1,38.25-1.86,17.48-17,32.48-35.27,31.5-54.71-8.67-.19-18.86-.23-28.41,0C509.6,71.43,334.5,80,188.45,118.12c-35.57,9.29-81.45,25.2-115.6,45.51,9.37,20.29,2.12,43.38-11,63.23-6.17,9.36-13.55,18.36-21,27.32,1,1,2.16,2.11,3.32,3.16,13.48,12.24,33.18,21.16,55.13,26.73,80.79,20.5,185.07,3.58,267.17,5.07,72.44,1.33,180.26-.16,244.81,22.55,71.16,25-86.47,45.27-113.83,48.1-76.85,7.94-155.21,8.07-232.86,10.31-62.64,1.8-130.73,4.51-187.26,22.6,32.75,7.07,69.72,10.71,99.2,22.27,10,3.9,15.93,8.78,20,14.29,7.63-1.09,15-2.08,21.6-2.44,20.32-1.13,40.76-1.52,61.14-2.08,81.78-2.21,164.23-2.76,245-12,71.93-8.21,174.26-22.94,194.63-74.3C736.27,294.63,673.46,262.66,611.31,253.22Z" transform="translate(0)"/></g><g id="OBJECTS"><path class="cls-3" d="M34.44,214.5c.61,3.79,3,7.45,2.12,11.2s-4.37,6-7.83,7.29-7.25,2.19-10.11,4.57c-4.34,3.61-5.39,10.24-3.32,15.5s6.76,9.15,12,11.36,10.91,2.9,16.54,3.27c6.61.44,13.37.45,19.71-1.49s12.25-6.06,15.05-12.06,1.8-13.94-3.29-18.18c-3.66-3-8.94-4-11.84-7.78-2.41-3.13-2.55-7.41-2.39-11.36.31-8-1.92-18.53-12.18-18.47C41.29,198.39,33.22,207,34.44,214.5Z" transform="translate(0)"/><path class="cls-4" d="M49.4,264.78a.63.63,0,0,1-.34-.1l-13.94-8.43a.65.65,0,0,1-.23-.9.66.66,0,0,1,.91-.23l14,8.43a.66.66,0,0,1-.35,1.23Z" transform="translate(0)"/><path class="cls-4" d="M49,256.17a.59.59,0,0,1-.34-.1L45.14,254l-.07-.05h0l-.06,0-2.79-1.69a.66.66,0,0,1-.23-.91.66.66,0,0,1,.91-.22l2.9,1.75.15.1,3.37,2a.66.66,0,0,1-.34,1.23Z" transform="translate(0)"/><path class="cls-4" d="M49.66,261.72a.67.67,0,0,1-.57-.32.66.66,0,0,1,.23-.9l14.2-8.59a.66.66,0,0,1,.91.23.65.65,0,0,1-.23.9L50,261.63A.69.69,0,0,1,49.66,261.72Z" transform="translate(0)"/><path class="cls-4" d="M49.73,268.34a.66.66,0,0,1-.66-.63l-.66-17.48a.67.67,0,0,1,.64-.68.66.66,0,0,1,.69.63l.65,17.48a.65.65,0,0,1-.63.68Z" transform="translate(0)"/><path class="cls-5" d="M562,62.17c2.36,2.48,4.76,5.92,5.57,6.46,1.14.76,2.21,1.85,1.92,2.32s-1.22.4-2.06-.13a39.61,39.61,0,0,1-7.32-5.64c-2.12-2.23-4-4.4-4.42-5.65-.12-.45.18-.66.42-.88C557,57.79,559.15,59.16,562,62.17Z" transform="translate(0)"/><path class="cls-6" d="M561.26,82.94c2.92,1.23,2.42,3.42,1.23,6.09a167.48,167.48,0,0,1-8.41,15.55c0,.06-.68,1.07-.72,1.12-.91,1.24-2-.5-1.66-2.25C552.24,100.56,557.16,81.2,561.26,82.94Z" transform="translate(0)"/><path class="cls-6" d="M545,70.52c-1.05-3.12,4.17-4,6.52-3.47,1.93.44,3.2,2.24,4.28,3.9,2.34,3.59,4.8,7.44,7.14,11,1.14,1,2.65,4.11,0,6-.85.61-3.51-.77-4.15-1C556.27,84.6,546.45,74.92,545,70.52Z" transform="translate(0)"/><path class="cls-6" d="M551.81,102.93a4,4,0,0,0-.77,2.25c.17.77,2.64,1.78,4.83,2.33.63.16,1.1-.26.76-.82C556.12,105.88,552.32,102.88,551.81,102.93Z" transform="translate(0)"/><path class="cls-4" d="M544.25,76.43c3.29.29,8.16-.63,8.16-2.74,0-1-1.38-.93-2.4-.93h-5.75a1.83,1.83,0,0,0-.49,3.58A2.29,2.29,0,0,0,544.25,76.43Z" transform="translate(0)"/><path class="cls-4" d="M522.89,99.1a12.16,12.16,0,1,1,12.16,12.16A12.17,12.17,0,0,1,522.89,99.1Zm1.66,0a10.51,10.51,0,1,0,10.5-10.5A10.51,10.51,0,0,0,524.55,99.1Z" transform="translate(0)"/><path class="cls-4" d="M564.53,99.1a12.16,12.16,0,1,1,12.16,12.16A12.17,12.17,0,0,1,564.53,99.1Zm1.65,0a10.51,10.51,0,1,0,10.51-10.5A10.52,10.52,0,0,0,566.18,99.1Z" transform="translate(0)"/><path class="cls-4" d="M577.19,100.64a.66.66,0,0,1-.64-.48c-2-6.93-7.24-25.07-7.48-25.74l-.27-.74.78-.14c1.65-.27,2.34-1,2.33-1.21s-1.48-1-6.37.13a.67.67,0,0,1-.79-.5.66.66,0,0,1,.5-.79c2.82-.62,6.44-1.09,7.63.26a1.34,1.34,0,0,1,.26,1.38,3.67,3.67,0,0,1-2.61,1.88c1.24,4.13,7,24.17,7.29,25.1a.66.66,0,0,1-.45.82Z" transform="translate(0)"/><path class="cls-4" d="M554.65,100.16c-2-6.82-7.15-24.66-7.39-25.31l1.24-.46c.3.81,7.12,24.4,7.42,25.4Z" transform="translate(0)"/><path class="cls-4" d="M555.28,100.64l-19.15-.4a1.54,1.54,0,0,1-1.37-.88,1.56,1.56,0,0,1,.17-1.62c14.05-18.1,14.16-18.1,14.61-18.1h22l.19.38c.24.52.25.53-7.66,10.48-3.83,4.82-7.67,9.61-7.67,9.61A1.53,1.53,0,0,1,555.28,100.64ZM549.82,81c-1,1.14-6.19,7.74-13.84,17.59a.23.23,0,0,0,.17.37l19.14.4a.17.17,0,0,0,.11-.06c5-6.24,12.26-15.34,14.49-18.3Z" transform="translate(0)"/><path class="cls-4" d="M555,103c-1.39,0-14.76-1.22-20-1.78h0a2.13,2.13,0,0,1-2-2.12,2.07,2.07,0,0,1,2-2c5.41-.53,18.75-1.77,20-1.77a3.86,3.86,0,0,1,0,7.72ZM555,96c-1.25,0-14.56,1.24-20,1.77a1.4,1.4,0,0,0-1.39,1.4,1.48,1.48,0,0,0,1.39,1.46h0c5.26.55,18.59,1.77,20,1.77a3.2,3.2,0,0,0,0-6.4Z" transform="translate(0)"/><rect class="cls-4" x="554.63" y="99.54" width="1.32" height="7.32"/><rect class="cls-4" x="552.84" y="106.21" width="4.9" height="1.32"/><path class="cls-6" d="M566.27,80c2.6,1.8,1.66,3.84,0,6.22A175.71,175.71,0,0,1,554.75,100s-.85.59-.89.63c-1.16,1-2.19-.14-1.51-1.78C553.48,96.11,562.61,77.43,566.27,80Z" transform="translate(0)"/><path class="cls-6" d="M542.06,73.05c-2.37-4,5.3-4.44,7.69-4.73,2-.25,3.77,1,5.35,2.2,3.43,2.58,7,5.35,10.49,7.93,1.41.54,3.92,3,2,5.65-2,2.92-3.56.48-4.23.49C560.23,83.18,544.44,77,542.06,73.05Z" transform="translate(0)"/><path class="cls-7" d="M560.2,49.1,556,47.74a6.91,6.91,0,0,0-8.7,4.43l-7.64,18.68,19.8,2.77,5.14-15.83A6.89,6.89,0,0,0,560.2,49.1Z" transform="translate(0)"/><path class="cls-6" d="M552.62,98.6c-.51.06-1,1.86-1,1.86-.23.36,2.95,2.18,5.14,2.72a.72.72,0,0,0,.77-1.09C557,101.28,553.13,98.54,552.62,98.6Z" transform="translate(0)"/><path class="cls-5" d="M549.66,55.79c.21,4.15,1.41,8.76,3.15,8.67,1.24-.06,1.53-4.75,1.32-8.9s-1.38-7.45-2.62-7.39S549.45,51.64,549.66,55.79Z" transform="translate(0)"/><path class="cls-5" d="M558,64.65c2.8,1.95,5.84,4.84,6.75,5.21,1.27.51,2.16,1.15,2,1.66s-1.37.62-2.31.27A35.62,35.62,0,0,1,556.76,68c-2.52-1.75-4.85-3.49-5.46-4.65-.21-.41,0-.68.23-.94C552.24,61.37,554.61,62.28,558,64.65Z" transform="translate(0)"/><path class="cls-7" d="M552.81,48.35c-.58-.86-1.57-.48-2.24.32A7.34,7.34,0,0,0,549,52.16a25.78,25.78,0,0,0,.33,6.85c.26.1,4.88-.14,5.62-.61C555.27,55.71,554.37,50.69,552.81,48.35Z" transform="translate(0)"/><path class="cls-5" d="M557.22,50.15h0a1.55,1.55,0,0,0,1.91-1.06l1-3.41-2.91-1.83-1,4.39A1.54,1.54,0,0,0,557.22,50.15Z" transform="translate(0)"/><path class="cls-5" d="M559.12,44.43,557,44.12a1,1,0,1,1,.29-1.95l2.2.33Z" transform="translate(0)"/><path class="cls-5" d="M560.5,38.6a2.83,2.83,0,0,1,2.12,1.61,4.36,4.36,0,0,1,0,3,10.65,10.65,0,0,1-1.19,3.44c-1.1,1.5-2.77.71-4-.22a1.52,1.52,0,0,1-.61-.9,10.89,10.89,0,0,1,.61-4.89A2.79,2.79,0,0,1,560.5,38.6Z" transform="translate(0)"/><path class="cls-6" d="M559.1,40.47c.56-.52,1.46-.31,2.18,0a2.49,2.49,0,0,0,2.2.14,1.54,1.54,0,0,0,.37-2,3.11,3.11,0,0,0-1.68-1.31,5.24,5.24,0,0,0-4.43.19c-1.28.74-2.55,2.85-1.8,4.35a1.51,1.51,0,0,0,1.81.7C558.65,42.2,558.47,41.06,559.1,40.47Z" transform="translate(0)"/><path class="cls-5" d="M262.08,103.51c.28,3.15-1.89,3.74-4.81,3.94a170.92,170.92,0,0,1-17.68-.13l-1.32-.11c-1.53-.22-.49-2,1.2-2.52C242.28,103.82,261.68,99.07,262.08,103.51Z" transform="translate(0)"/><path class="cls-5" d="M265.4,83.3c2.26-2.39,5.5,1.8,6.12,4.13.52,1.91-.47,3.87-1.43,5.61-2.08,3.75-4.32,7.73-6.4,11.48-.33,1.47-2.39,4.27-5.3,2.83-.94-.47-1-3.46-1.08-4.13C258.27,99.87,262.2,86.66,265.4,83.3Z" transform="translate(0)"/><path class="cls-6" d="M240,104.54a3.92,3.92,0,0,0-2.34.38c-.61.51-.34,3.17.21,5.36.15.63.74.84,1.07.28C239.4,109.74,240.27,105,240,104.54Z" transform="translate(0)"/><path class="cls-6" d="M264.44,82.77a93.38,93.38,0,0,0-4.81,12.58c2.49,1.42,5.52,2.5,8,3.92a57.15,57.15,0,0,0,4.81-11,3.77,3.77,0,0,0,.09-2.89,3.9,3.9,0,0,0-2.48-1.56C268.31,83.28,266.2,83.31,264.44,82.77Z" transform="translate(0)"/><path class="cls-5" d="M290.31,96.91c2.76-1.56,4.19.18,5.58,2.75a170.1,170.1,0,0,1,7.16,16.17c0,.06.43,1.19.44,1.25.43,1.48-1.61,1.27-2.79-.06C298.75,114.82,286.44,99.09,290.31,96.91Z" transform="translate(0)"/><path class="cls-5" d="M272.31,88.14c-1.74-2.79,3.13-4.87,5.54-4.89,2,0,3.63,1.44,5.07,2.8,3.11,3,6.39,6.12,9.51,9.08,1.34.7,3.53,3.39,1.39,5.85-.69.79-2.44.25-3.11.19C287.71,99.4,274.76,92.08,272.31,88.14Z" transform="translate(0)"/><path class="cls-6" d="M300.36,116.62s.49,1.58,1.3,2,3-1,4.8-2.39c.51-.4.46-1-.18-1.1C305.33,115,300.62,116.18,300.36,116.62Z" transform="translate(0)"/><path class="cls-6" d="M271.56,88.94a93.27,93.27,0,0,0,11,7.82c2-2.06,3.81-4.72,5.82-6.78a57.81,57.81,0,0,0-9.43-7.42,3.8,3.8,0,0,0-2.78-.82,4,4,0,0,0-2.13,2C273,85.32,272.53,87.37,271.56,88.94Z" transform="translate(0)"/><path class="cls-6" d="M274.14,88.51a17.52,17.52,0,0,0,6-3c1-.74,2.13-1.83,1.84-3.07s-1.48-1.63-2.56-1.92c-3.75-1-8.75-1.48-12.46,0s-1.59,5.84.94,7.29A8.58,8.58,0,0,0,274.14,88.51Z" transform="translate(0)"/><path class="cls-8" d="M275.09,56.59l-4.39.2A6.9,6.9,0,0,0,264.12,64l-.59,20.17h19.8l-1-21A6.91,6.91,0,0,0,275.09,56.59Z" transform="translate(0)"/><path class="cls-5" d="M263.41,58.51c-4.1.68-8.54,2.39-8.26,4.12.2,1.22,4.89,1,9,.3s7.25-2.21,7.05-3.44S267.5,57.83,263.41,58.51Z" transform="translate(0)"/><path class="cls-5" d="M261.08,65.55c2.19,2.62,4.37,6.21,5.15,6.8,1.09.82,1.78,1.67,1.46,2.11s-1.49.24-2.3-.34A35.09,35.09,0,0,1,259,68.44c-2-2.35-3.77-4.64-4.06-5.92-.1-.45.22-.64.47-.85C256.36,60.88,258.41,62.37,261.08,65.55Z" transform="translate(0)"/><path class="cls-8" d="M271.15,60.81c.8-.68.31-1.62-.56-2.2S270.36,57,269.18,57a45.66,45.66,0,0,0-9,1.53c-.08.27.68,4.83,1.24,5.51C264.12,64.08,269,62.62,271.15,60.81Z" transform="translate(0)"/><path class="cls-5" d="M280.94,64.09c3.39,2.41,7.74,4.33,8.76,2.9.72-1-2.77-4.15-6.16-6.55s-6.7-3.55-7.42-2.54S277.56,61.68,280.94,64.09Z" transform="translate(0)"/><path class="cls-5" d="M287.56,60.74c.29-3.41,1.27-7.48,1.14-8.46-.2-1.35-.09-2.44.45-2.52s1.23.88,1.39,1.86a35.22,35.22,0,0,1,.53,8.54c-.26,3.06-.6,6-1.3,7-.24.39-.61.3-.93.28C287.61,67.38,287.21,64.88,287.56,60.74Z" transform="translate(0)"/><path class="cls-8" d="M277.07,57c-1-.09-1.36.93-1.15,2s-.95,1.28-.11,2.12a45.2,45.2,0,0,0,7.46,5.26c.24-.14,2.92-3.91,3-4.78C284.36,59.64,279.87,57.23,277.07,57Z" transform="translate(0)"/><path class="cls-5" d="M272.66,58.63h0A1.55,1.55,0,0,0,274.08,57l-.29-3.53-3.37-.69.58,4.48A1.54,1.54,0,0,0,272.66,58.63Z" transform="translate(0)"/><path class="cls-5" d="M272.43,52.6l-2.06.45a1,1,0,0,1-.42-1.93l2.18-.46Z" transform="translate(0)"/><path class="cls-5" d="M271.67,46.66a2.82,2.82,0,0,1,2.55.76,4.38,4.38,0,0,1,1,2.84,10.36,10.36,0,0,1,.09,3.64c-.5,1.79-2.34,1.64-3.81,1.19a1.46,1.46,0,0,1-.88-.63c-.91-1.43-1-3.14-1.16-4.78A2.82,2.82,0,0,1,271.67,46.66Z" transform="translate(0)"/><path class="cls-6" d="M271,50.16a4.5,4.5,0,0,1,0-1.1,1.29,1.29,0,0,1,1.13-.74c.47,0,.95,0,1.43,0a1.33,1.33,0,0,0,1.17-.68,1.17,1.17,0,0,0-.6-1.39A3.2,3.2,0,0,0,272.5,46a31.67,31.67,0,0,0-4.35.39,2.51,2.51,0,0,0-1.62.72,2.31,2.31,0,0,0-.17,2,4,4,0,0,0,.78,1.59C268,51.67,270.89,52,271,50.16Z" transform="translate(0)"/><rect class="cls-4" x="639.48" y="377.8" width="67.41" height="6.44" transform="translate(1346.36 762.05) rotate(180)"/><polygon class="cls-4" points="639.48 391.68 706.88 391.68 713.91 396.67 646.5 396.67 639.48 391.68"/><rect class="cls-4" x="695.1" y="381.03" width="1.65" height="10.97" transform="translate(1391.86 773.02) rotate(180)"/><rect class="cls-4" x="695.1" y="395.66" width="1.65" height="12.96" transform="translate(1391.86 804.28) rotate(180)"/><rect class="cls-4" x="649.6" y="381.03" width="1.65" height="10.97" transform="translate(1300.86 773.02) rotate(180)"/><rect class="cls-4" x="649.6" y="392.34" width="1.65" height="16.27" transform="translate(1300.86 800.96) rotate(180)"/><rect class="cls-4" x="706.17" y="395.66" width="1.65" height="12.96" transform="translate(1413.99 804.28) rotate(180)"/><rect class="cls-4" x="660.67" y="392.34" width="1.65" height="16.27" transform="translate(1322.99 800.96) rotate(180)"/><path class="cls-5" d="M680.38,376.13c3.33-.77,7.51-1.08,8.4-1.51,1.23-.59,2.71-1,3-.47s-.26,1.25-1.15,1.71a39.92,39.92,0,0,1-8.59,3.43c-3,.69-5.84,1.25-7.11.93-.44-.12-.47-.49-.54-.81C674.07,378.21,676.33,377.06,680.38,376.13Z" transform="translate(0)"/><path class="cls-6" d="M690.57,392.85c3,1,2.66,3.25,1.66,6A174.9,174.9,0,0,1,685,415.26c0,.06-.66.81-.69.86-.82,1.3-2.14.46-1.94-1.3C682.71,411.9,686.36,391.42,690.57,392.85Z" transform="translate(0)"/><path class="cls-6" d="M665.39,392.86c-3.37-3.16,3.88-5.72,6.09-6.66,1.82-.78,3.9-.07,5.75.64,4,1.54,8.26,3.21,12.27,4.75,1.5.13,4.58,1.78,3.53,4.86-1.16,3.37-3.29,1.44-3.94,1.64C685.64,397.6,668.78,396,665.39,392.86Z" transform="translate(0)"/><path class="cls-6" d="M682.57,414.53c-.48.19-.49,2.07-.49,2.07-.12.4,3.44,1.28,5.7,1.2a.72.72,0,0,0,.44-1.26C687.51,415.9,683,414.33,682.57,414.53Z" transform="translate(0)"/><path class="cls-6" d="M695,390.29c3.13.42,3.23,2.66,2.79,5.56a173.39,173.39,0,0,1-3.89,17.5c0,.07-.48.92-.51,1-.55,1.44-2,.87-2.15-.9C691,410.5,690.54,389.71,695,390.29Z" transform="translate(0)"/><path class="cls-6" d="M670.69,393.57c-3.92-2.44,2.26-4.73,4.25-6.09,1.63-1.11,5.9-1.49,7.85-1.15,4.23.73,15.29,1.54,15.28,7,0,3.57-3,2.06-3.55,2.38C691.05,395.91,674.63,396,670.69,393.57Z" transform="translate(0)"/><path class="cls-6" d="M691.33,413.11c-.42.28-.07,2.13-.07,2.13,0,.42,3.62.58,5.82.06a.72.72,0,0,0,.18-1.32C696.45,413.49,691.76,412.82,691.33,413.11Z" transform="translate(0)"/><path class="cls-8" d="M676.6,363.6l-4.39.13a6.9,6.9,0,0,0-6.69,7.11l-1.39,20.29,20.08-4.58-.51-16.27A6.89,6.89,0,0,0,676.6,363.6Z" transform="translate(0)"/><path class="cls-5" d="M663.71,369.62c-2.82,3.06-5.27,7.14-4,8.32.91.84,4.46-2.23,7.28-5.28s4.35-6.21,3.44-7.05S666.52,366.57,663.71,369.62Z" transform="translate(0)"/><path class="cls-8" d="M671.23,366.67c.22-1-.75-1.47-1.79-1.38s-.9-.32-1.84.41c-1.44,1.12-5.42,4.41-6.41,5.95.11.25,3.52,3.39,4.37,3.58C667.69,373.57,670.65,369.42,671.23,366.67Z" transform="translate(0)"/><path class="cls-5" d="M674.2,365.71h0a1.55,1.55,0,0,0,2.12-.53l1.83-3-2.32-2.53-2.16,4A1.55,1.55,0,0,0,674.2,365.71Z" transform="translate(0)"/><path class="cls-5" d="M677.53,360.68l-1.93-.84a1,1,0,1,1,.79-1.8l2,.89Z" transform="translate(0)"/><path class="cls-5" d="M680.39,355.42a2.79,2.79,0,0,1,1.62,2.11,4.31,4.31,0,0,1-.82,2.91,10.5,10.5,0,0,1-2.05,3c-1.45,1.15-2.86-.05-3.79-1.27a1.51,1.51,0,0,1-.35-1c.1-1.7,1.06-3.12,1.86-4.56A2.8,2.8,0,0,1,680.39,355.42Z" transform="translate(0)"/><path class="cls-6" d="M678.55,356.86c.67-.36,1.49.08,2.11.53s1.36.95,2.09.71a1.52,1.52,0,0,0,.86-1.78,3.07,3.07,0,0,0-1.27-1.7,5.21,5.21,0,0,0-4.33-1c-1.42.37-3.2,2.08-2.87,3.72a1.51,1.51,0,0,0,1.56,1.15C677.66,358.41,677.79,357.26,678.55,356.86Z" transform="translate(0)"/><polygon class="cls-9" points="682.4 382.36 675.81 380.78 676.66 370.99 683.25 372.56 682.4 382.36"/><polygon class="cls-9" points="682.37 382.36 689.24 380.78 690.09 370.99 683.23 372.56 682.37 382.36"/><path class="cls-5" d="M666,375.77c3.41.26,7.49,1.2,8.46,1.06,1.36-.2,2.44-.1,2.54.44s-.87,1.23-1.86,1.4a35.36,35.36,0,0,1-8.53.6c-3.06-.23-6-.55-7.06-1.24-.4-.24-.31-.6-.29-.93C659.33,375.87,661.83,375.45,666,375.77Z" transform="translate(0)"/><path class="cls-5" d="M398.32,355.17c-2.35,2.48-4.75,5.92-5.57,6.46-1.14.76-2.21,1.85-1.91,2.31s1.21.41,2.06-.12a40.44,40.44,0,0,0,7.32-5.64c2.11-2.23,4-4.4,4.41-5.66.13-.44-.18-.65-.41-.87C403.32,350.79,401.18,352.16,398.32,355.17Z" transform="translate(0)"/><path class="cls-6" d="M399.07,375.94c-2.91,1.23-2.42,3.42-1.23,6.09a171.2,171.2,0,0,0,8.41,15.55l.72,1.11c.92,1.25,2-.49,1.66-2.24C408.09,393.56,403.17,374.2,399.07,375.94Z" transform="translate(0)"/><path class="cls-6" d="M415.36,363.52c1-3.12-4.18-4-6.53-3.47-1.93.44-3.19,2.23-4.27,3.89-2.35,3.6-4.8,7.45-7.14,11-1.15,1-2.65,4.12,0,6,.86.62,3.51-.76,4.15-1C404.07,377.59,413.89,367.92,415.36,363.52Z" transform="translate(0)"/><path class="cls-6" d="M408.53,395.93s1,1.36.76,2.25-2.63,1.78-4.82,2.33c-.63.15-1.1-.27-.76-.82C404.21,398.88,408,395.87,408.53,395.93Z" transform="translate(0)"/><path class="cls-4" d="M416.08,369.43c-3.28.29-8.15-.63-8.15-2.74,0-1,1.38-.93,2.4-.93h5.75a1.83,1.83,0,0,1,.49,3.58A3.37,3.37,0,0,1,416.08,369.43Z" transform="translate(0)"/><path class="cls-4" d="M425.28,404.26a12.16,12.16,0,1,1,12.16-12.16A12.17,12.17,0,0,1,425.28,404.26Zm0-22.66a10.51,10.51,0,1,0,10.51,10.5A10.51,10.51,0,0,0,425.28,381.6Z" transform="translate(0)"/><path class="cls-4" d="M383.65,404.26a12.16,12.16,0,1,1,12.16-12.16A12.17,12.17,0,0,1,383.65,404.26Zm0-22.66a10.51,10.51,0,1,0,10.51,10.5A10.52,10.52,0,0,0,383.65,381.6Z" transform="translate(0)"/><path class="cls-4" d="M383.15,393.64l-.18,0a.66.66,0,0,1-.45-.82c.26-.93,6.05-21,7.28-25.1a3.69,3.69,0,0,1-2.61-1.88,1.34,1.34,0,0,1,.27-1.38c1.18-1.35,4.8-.89,7.63-.26a.66.66,0,0,1-.29,1.29c-4.89-1.08-6.29-.36-6.37-.13s.68.94,2.33,1.21l.78.13-.27.75c-.24.66-5.49,18.8-7.48,25.74A.67.67,0,0,1,383.15,393.64Z" transform="translate(0)"/><path class="cls-4" d="M405.69,393.16l-1.27-.37c.29-1,7.12-24.59,7.42-25.4l1.24.46C412.84,368.5,407.66,386.34,405.69,393.16Z" transform="translate(0)"/><path class="cls-4" d="M405.07,393.64a1.5,1.5,0,0,1-1.13-.51s-3.86-4.81-7.69-9.63c-7.91-9.95-7.91-10-7.66-10.48l.18-.38h22c.46,0,.56,0,14.61,18.1h0a1.55,1.55,0,0,1-1.19,2.5l-19.14.4ZM390.45,374c2.22,3,9.48,12.06,14.5,18.32a.21.21,0,0,0,.11,0l19.12-.39a.24.24,0,0,0,.2-.13.21.21,0,0,0,0-.24h0c-7.54-9.71-12.84-16.44-13.84-17.59Z" transform="translate(0)"/><path class="cls-4" d="M405.34,396a3.86,3.86,0,1,1,0-7.71c1.27,0,14.61,1.24,20,1.77a2.06,2.06,0,0,1,2,2.05,2.14,2.14,0,0,1-2,2.12C420.09,394.79,406.72,396,405.34,396Zm0-7.05a3.2,3.2,0,1,0,0,6.39c1.37,0,14.69-1.21,20-1.76a1.5,1.5,0,0,0,1.4-1.47,1.4,1.4,0,0,0-1.4-1.39C419.89,390.19,406.59,389,405.34,389Z" transform="translate(0)"/><rect class="cls-4" x="404.39" y="392.54" width="1.32" height="7.32"/><rect class="cls-4" x="402.6" y="399.2" width="4.9" height="1.32"/><path class="cls-6" d="M393.84,335.18a5.35,5.35,0,0,0,.66,3.87c2,3.47,6.79,1.94,9.23,4.89a10.42,10.42,0,0,0,1.12,1.35c1.19,1,2.34.23,2.83-1,.63-1.6,1.39-2.85,3.31-2.81,1.21,0,2.38.46,3.58.56,2.64.22,4.94-2.38,3.59-4.94-1.57-3-4.55-.86-6.86-2-1.86-.92-2-3.46-3.52-4.74a6.86,6.86,0,0,0-5.34-1.5,14.37,14.37,0,0,0-5.21,2A7.1,7.1,0,0,0,393.84,335.18Z" transform="translate(0)"/><path class="cls-6" d="M394.07,373c-2.6,1.81-1.67,3.85.05,6.22A176,176,0,0,0,405.58,393c.05,0,.85.6.9.64,1.15,1,2.19-.14,1.5-1.78C406.86,389.11,397.72,370.43,394.07,373Z" transform="translate(0)"/><path class="cls-6" d="M418.34,366.37a3.76,3.76,0,0,0,.39-3.73c-.77-2.06-6.45-1.11-8.14-1.33-2-.24-3.77,1-5.36,2.21-3.43,2.58-7.05,5.35-10.48,7.93-1.41.54-3.92,3-2.06,5.65,2.05,2.92,3.56.48,4.24.49C400.11,376.18,416,370.35,418.34,366.37Z" transform="translate(0)"/><path class="cls-8" d="M400.13,342.1l4.18-1.36a6.89,6.89,0,0,1,8.69,4.43l5.73,17.47-17.88,4-2.72-10.43-2.43-5.4A6.9,6.9,0,0,1,400.13,342.1Z" transform="translate(0)"/><path class="cls-6" d="M407.72,391.6c.51.06,1,1.86,1,1.86.22.36-3,2.18-5.15,2.72a.72.72,0,0,1-.77-1.09C403.34,394.28,407.21,391.54,407.72,391.6Z" transform="translate(0)"/><path class="cls-5" d="M410.68,348.79c-.21,4.15-1.41,8.76-3.16,8.67-1.23-.07-1.53-4.75-1.32-8.9s1.39-7.46,2.62-7.39S410.89,344.64,410.68,348.79Z" transform="translate(0)"/><path class="cls-5" d="M402.32,357.65c-2.81,2-5.85,4.84-6.76,5.21-1.26.51-2.15,1.14-2,1.66s1.38.62,2.31.26a34.46,34.46,0,0,0,7.66-3.8c2.52-1.76,4.86-3.49,5.46-4.65.22-.41,0-.68-.22-.94C408.1,354.37,405.73,355.28,402.32,357.65Z" transform="translate(0)"/><path class="cls-8" d="M407.52,341.35c.58-.87,1.58-.49,2.25.31a7.42,7.42,0,0,1,1.56,3.5A25.4,25.4,0,0,1,411,352c-.25.1-4.87-.14-5.61-.61C405.07,348.71,406,343.69,407.52,341.35Z" transform="translate(0)"/><path class="cls-5" d="M403.12,343.15h0a1.55,1.55,0,0,1-1.91-1.06l-1-3.41,2.9-1.84,1,4.4A1.55,1.55,0,0,1,403.12,343.15Z" transform="translate(0)"/><path class="cls-5" d="M401.22,337.43l2.09-.32a1,1,0,0,0-.3-1.94l-2.2.33Z" transform="translate(0)"/><path class="cls-5" d="M399.84,331.6a2.78,2.78,0,0,0-2.12,1.61,4.36,4.36,0,0,0,0,3,10.42,10.42,0,0,0,1.19,3.44c1.1,1.5,2.77.7,4-.22a1.54,1.54,0,0,0,.6-.91c.35-1.66-.2-3.28-.6-4.88A2.79,2.79,0,0,0,399.84,331.6Z" transform="translate(0)"/><path class="cls-8" d="M400.42,351.7l-3.49-5.14c-.74.55-1.56,1-1.56,2.31a36,36,0,0,0,.47,5.89,2.45,2.45,0,0,0,1.78,1.4,2.64,2.64,0,0,0,2.71-1.49A4.64,4.64,0,0,0,400.42,351.7Z" transform="translate(0)"/><path class="cls-6" d="M405.28,333.12a5.11,5.11,0,0,0-2.31-2,4.28,4.28,0,0,0-4.08-.27c-1.38.65-3,1.81-2.43,3.6a1.88,1.88,0,0,0,2.27,1.26c.26-.09.5-.26.78-.33a2,2,0,0,1,1.72.63,5.55,5.55,0,0,0,1.5,1.16,2.26,2.26,0,0,0,2.66-1A3.12,3.12,0,0,0,405.28,333.12Z" transform="translate(0)"/><rect class="cls-4" x="400.34" y="45.06" width="67.41" height="6.44"/><polygon class="cls-4" points="467.75 58.94 400.34 58.94 393.32 63.92 460.73 63.92 467.75 58.94"/><rect class="cls-4" x="410.47" y="48.28" width="1.65" height="10.97"/><rect class="cls-4" x="410.47" y="62.92" width="1.65" height="12.96"/><rect class="cls-4" x="455.97" y="48.28" width="1.65" height="10.97"/><rect class="cls-4" x="455.97" y="59.6" width="1.65" height="16.27"/><rect class="cls-4" x="399.4" y="62.92" width="1.65" height="12.96"/><rect class="cls-4" x="444.91" y="59.6" width="1.65" height="16.27"/><path class="cls-6" d="M434.2,81.33c.47.2.47,2.08.47,2.08.12.41-3.45,1.26-5.7,1.16a.71.71,0,0,1-.43-1.26C429.25,82.67,433.72,81.13,434.2,81.33Z" transform="translate(0)"/><path class="cls-6" d="M449.27,24.21c-.36,1.19-1.51,2.2-1.3,3.43.17,1,1.19,1.63,1.77,2.49a4,4,0,0,1,.14,3.84,8.45,8.45,0,0,1-2.63,3,11.45,11.45,0,0,1-4.5,2.19,6.64,6.64,0,0,1-4.86-.75,4.69,4.69,0,0,1-2.24-4.23c.06-.67.29-1.32.33-2a12.12,12.12,0,0,0-.4-2.6A8.44,8.44,0,0,1,438.19,22a8.72,8.72,0,0,1,7.1-2C447.36,20.32,450,21.67,449.27,24.21Z" transform="translate(0)"/><path class="cls-5" d="M435.32,42.09c-3,1.71-6.23,4.34-7.17,4.63-1.3.41-2.64,1.15-2.49,1.68s1.06.74,2,.46a39.66,39.66,0,0,0,8.61-3.35c2.66-1.54,5.12-3.08,5.83-4.18.24-.39,0-.68-.15-1C441.35,39.3,438.91,40,435.32,42.09Z" transform="translate(0)"/><path class="cls-6" d="M431.57,62.53c-2.59-1.83-4.19-.26-5.84,2.16A172.54,172.54,0,0,0,416.93,80c0,.06-.55,1.14-.57,1.2-.57,1.43,1.47,1.43,2.79.23C421.31,79.47,435.19,65.11,431.57,62.53Z" transform="translate(0)"/><path class="cls-6" d="M451.87,59.56c2.54-2.09-1.43-5.61-3.7-6.39-1.88-.64-3.9.21-5.7,1-3.89,1.82-8,3.79-11.89,5.61-1.49.24-4.42,2.1-3.17,5.1.4,1,3.38,1.21,4,1.36C434.85,65.56,448.3,62.53,451.87,59.56Z" transform="translate(0)"/><path class="cls-6" d="M419.53,81.09s-.65,1.52-1.51,1.83-2.9-1.3-4.52-2.88c-.46-.45-.35-1.07.3-1.07C414.75,79,419.31,80.62,419.53,81.09Z" transform="translate(0)"/><path class="cls-6" d="M426.23,59.33c-3,1-2.68,3.22-1.7,6a183.13,183.13,0,0,0,7.38,16.8c0,.06.39.47.42.52.82,1.31,2.14.48,1.95-1.29C434,78.42,430.45,57.92,426.23,59.33Z" transform="translate(0)"/><path class="cls-6" d="M451.37,59.82a3.74,3.74,0,0,0,1.43-3.47c-.16-2.19-5.88-2.88-7.44-3.56-1.82-.78-3.9-.09-5.76.61-4,1.51-8.27,3.15-12.29,4.66-1.51.12-4.6,1.76-3.56,4.84,1.13,3.39,3.28,1.47,3.92,1.67C431.12,64.11,448,63,451.37,59.82Z" transform="translate(0)"/><path class="cls-9" d="M440.75,31.41l6.29.09c4.44.53,5.09,2.67,5.2,6.48l.57,18.37-18.27-1.21.32-10.77-.81-5.86A6.9,6.9,0,0,1,440.75,31.41Z" transform="translate(0)"/><path class="cls-5" d="M453.77,38c2.57,3.27,4.69,7.53,3.32,8.61-1,.77-4.28-2.57-6.84-5.84s-3.86-6.53-2.88-7.29S451.21,34.78,453.77,38Z" transform="translate(0)"/><path class="cls-5" d="M451.13,46.83c-2.79,2-5.8,4.89-6.71,5.27-1.26.52-2.14,1.16-1.94,1.68s1.37.6,2.3.24a34.82,34.82,0,0,0,7.63-3.87c2.51-1.77,4.28-2.55,4.88-3.71a3,3,0,0,0-.37-1.88C456.2,43.55,454.52,44.43,451.13,46.83Z" transform="translate(0)"/><path class="cls-9" d="M446.51,34.51c-.14-1,.86-1.4,1.9-1.24s.88-1.34,1.89-.72c2.39,1.47,5,6.1,5.82,7.71-.12.25-3.77,3.1-4.63,3.23C449.49,41.67,446.87,37.29,446.51,34.51Z" transform="translate(0)"/><path class="cls-5" d="M443,33.26h0a1.54,1.54,0,0,0,1.53-1.56l0-3.54-3.3-.94.24,4.51A1.55,1.55,0,0,0,443,33.26Z" transform="translate(0)"/><path class="cls-5" d="M443.23,27.23l-2.09.29a1,1,0,1,1-.27-1.94l2.21-.31Z" transform="translate(0)"/><path class="cls-5" d="M442.91,21.25a2.83,2.83,0,0,1,2.49.95,4.35,4.35,0,0,1,.82,2.91,10.61,10.61,0,0,1-.17,3.64c-.64,1.75-2.46,1.45-3.89.9a1.51,1.51,0,0,1-.84-.69c-.8-1.5-.73-3.21-.79-4.86A2.79,2.79,0,0,1,442.91,21.25Z" transform="translate(0)"/><path class="cls-9" d="M438.31,40.71l-1.91-5.92c-.86.32-1.74.58-2.15,1.78-2.44,7.31,2.46,7.73,3.13,7A4.61,4.61,0,0,0,438.31,40.71Z" transform="translate(0)"/><path class="cls-6" d="M447.5,23a1.89,1.89,0,0,1-1.82,1.85,8,8,0,0,0-.84-.1,2,2,0,0,0-1.48,1.09,5.51,5.51,0,0,1-1.11,1.53,2.25,2.25,0,0,1-2.85-.26,3.1,3.1,0,0,1-.73-2.89,5,5,0,0,1,1.65-2.58,4.24,4.24,0,0,1,3.83-1.41C445.67,20.48,447.53,21.14,447.5,23Z" transform="translate(0)"/><polygon class="cls-7" points="147.56 330.88 74.85 330.88 94.68 315.89 167.39 315.89 147.56 330.88"/><path class="cls-6" d="M117.2,248.1a7.57,7.57,0,0,0,7.69,5.7,6.15,6.15,0,0,0,4.09-2c1.89-2.15,1.78-5.64.3-8.1s-5.83-4.09-8.76-3.12C117.31,241.67,116.46,245,117.2,248.1Z" transform="translate(0)"/><path class="cls-5" d="M131.11,320.11c.48.17.61,2,.61,2,.15.4-3.35,1.5-5.6,1.56a.72.72,0,0,1-.52-1.23C126.26,321.79,130.62,320,131.11,320.11Z" transform="translate(0)"/><path class="cls-5" d="M129.13,296.27c-3.16.2-3.42,2.43-3.19,5.35.39,4.86,1.81,13.36,2.8,18.13,0,.07.24.56.26.62.45,1.47,1.94,1,2.22-.75C131.66,316.72,133.57,296,129.13,296.27Z" transform="translate(0)"/><path class="cls-6" d="M131.24,298.8c.5-5.69,2.17-19.85,0-23.26a3.78,3.78,0,0,0-3.14-2.06c-2.19-.26-3.94,5.22-4.9,6.63-1.12,1.64-.83,3.82-.49,5.77.72,4.22,1.52,8.69,2.25,12.92Z" transform="translate(0)"/><path class="cls-5" d="M123.23,296.12c.4-.32,2,.58,2,.58.41.1-.56,3.63-1.72,5.56a.72.72,0,0,1-1.32-.23C122,301.1,122.82,296.44,123.23,296.12Z" transform="translate(0)"/><path class="cls-5" d="M102.1,284.9c-1.54,2.76.19,4.18,2.77,5.57,4.31,2.3,12.23,5.7,16.77,7.45l.66.11c1.49.42,1.91-1.09.57-2.27C120.67,293.81,104.28,281,102.1,284.9Z" transform="translate(0)"/><path class="cls-6" d="M112,287.77c5.51-1.48,12.67-3.3,15.14-6.47a3.76,3.76,0,0,0,.85-3.65c-.51-2.14-6.26-1.9-7.92-2.32-1.92-.48-3.86.54-5.58,1.53-3.71,2.13-12.12,4.63-13.56,9.27Z" transform="translate(0)"/><path class="cls-8" d="M121,252.38l6.29.08c4.44.54,5.09,2.68,5.2,6.49l-.61,18.29-16.36-1.08-.41-10.82-.8-5.86A6.9,6.9,0,0,1,121,252.38Z" transform="translate(0)"/><path class="cls-5" d="M133.7,256.24c3.42,2.28,6.73,5.61,5.75,7-.69,1-4.84-1.16-8.27-3.44s-5.64-4.94-5-5.93S130.27,254,133.7,256.24Z" transform="translate(0)"/><path class="cls-8" d="M125.72,255.05c-.44-.92.4-1.55,1.43-1.69s-.12-.84,1.06-.69c4,.52,7.08,3.7,8.39,5,0,.26-2.64,3.94-3.43,4.31C130.72,260.81,126.91,257.52,125.72,255.05Z" transform="translate(0)"/><path class="cls-5" d="M123.58,254.23h0a1.55,1.55,0,0,1-1.53-1.56l0-3.54,3.3-.94-.24,4.51A1.56,1.56,0,0,1,123.58,254.23Z" transform="translate(0)"/><path class="cls-5" d="M123.37,248.2l2.09.29a1,1,0,0,0,1.11-.84,1,1,0,0,0-.84-1.11l-2.21-.3Z" transform="translate(0)"/><path class="cls-5" d="M123.68,242.22a2.79,2.79,0,0,0-2.48.95,4.35,4.35,0,0,0-.82,2.91,10.61,10.61,0,0,0,.17,3.64c.64,1.74,2.46,1.45,3.89.9a1.55,1.55,0,0,0,.84-.69c.8-1.5.73-3.21.79-4.86A2.79,2.79,0,0,0,123.68,242.22Z" transform="translate(0)"/><path class="cls-8" d="M118.59,261.68l-1.91-5.92c-.86.32-1.74.58-2.14,1.78-2.45,7.31,2.45,7.73,3.12,7A4.63,4.63,0,0,0,118.59,261.68Z" transform="translate(0)"/><path class="cls-5" d="M133.55,261.24c-1.44.2-6.82.39-7.64-.25-1.14-.91-1.82-1.77-2.31-1.05s-.21,1.11,1.08,2.45c.89.92,12.48,2.84,14.11,2a1.74,1.74,0,0,0,.81-1.65C139.18,260.86,135.31,261,133.55,261.24Z" transform="translate(0)"/><path class="cls-5" d="M113.35,256.24c-3.43,2.28-6.73,5.61-5.75,7,.69,1,4.84-1.16,8.27-3.44s5.64-4.94,4.94-5.93S116.78,254,113.35,256.24Z" transform="translate(0)"/><path class="cls-8" d="M121.33,255.05c.44-.92-.4-1.55-1.43-1.69s.11-.84-1.06-.69c-4,.52-7.08,3.7-8.39,5,0,.26,2.64,3.94,3.43,4.31C116.33,260.81,120.14,257.52,121.33,255.05Z" transform="translate(0)"/><path class="cls-5" d="M113.5,261.24c1.44.2,6.82.39,7.63-.25,1.15-.91,1.83-1.77,2.32-1.05s.21,1.11-1.08,2.45c-.89.92-12.48,2.84-14.11,2a1.74,1.74,0,0,1-.81-1.65C107.87,260.86,111.74,261,113.5,261.24Z" transform="translate(0)"/><path class="cls-6" d="M125,247.23a3.36,3.36,0,0,0,1.26.12,2.15,2.15,0,0,0,1.57-1.45,3.42,3.42,0,0,0-1-3.48c-1.4-1.35-6-2.45-7.11-.16C118.3,245.14,123.06,246.8,125,247.23Z" transform="translate(0)"/><path class="cls-5" d="M433.57,153.33c.4,4.1-.1,8.77-1.8,8.89-1.2.09-2.16-4.48-2.55-8.58s.26-7.49,1.46-7.58S433.18,149.23,433.57,153.33Z" transform="translate(0)"/><path class="cls-8" d="M429.46,146.4c.43-.93,1.45-.67,2.21,0s.57-.62,1.2.39c2.15,3.46,1.6,7.83,1.47,9.63-.23.13-4.73.44-5.51.06C428.15,153.92,428.29,148.88,429.46,146.4Z" transform="translate(0)"/><path class="cls-5" d="M427.92,164.07c-.46,1.39-2.76,5.93-3.15,6.89-.8,2,.18,2.59,1.29,1.1,1.72-2.31,7-9.48,7-11.32a1.78,1.78,0,0,0-1.13-1.46C430,158.85,428.47,162.38,427.92,164.07Z" transform="translate(0)"/><path class="cls-6" d="M431.56,146.66c.81,6.92,4.26,12.08,7.69,11.49,1.54-.26,3.05-1.61,4.09-4,1.89-4.33,1.78-11.35.3-16.32-1.41-4.74-5.83-8.24-8.76-6.29C431.67,133.7,430.82,140.3,431.56,146.66Z" transform="translate(0)"/><path class="cls-6" d="M444.69,211.31c.48.17.61,2,.61,2,.15.4-3.35,1.5-5.6,1.56a.72.72,0,0,1-.52-1.23C439.84,213,444.2,211.15,444.69,211.31Z" transform="translate(0)"/><path class="cls-5" d="M442.71,187.48c-3.16.19-3.42,2.42-3.19,5.34A181.77,181.77,0,0,0,442.31,211c0,.06.25.55.27.61.45,1.47,1.94,1,2.21-.75C445.24,207.92,447.15,187.21,442.71,187.48Z" transform="translate(0)"/><path class="cls-6" d="M444.82,190c.5-5.68,2.17-19.85.05-23.26a3.78,3.78,0,0,0-3.14-2.06c-2.19-.26-3.94,5.22-4.9,6.64-1.12,1.63-.83,3.81-.5,5.76.73,4.22,1.53,8.7,2.26,12.92Z" transform="translate(0)"/><path class="cls-6" d="M436.73,211.52c.49.17.62,2,.62,2,.14.39-3.35,1.49-5.61,1.55a.71.71,0,0,1-.52-1.22C431.89,213.2,436.25,211.35,436.73,211.52Z" transform="translate(0)"/><path class="cls-5" d="M434.75,187.68c-3.16.19-3.42,2.42-3.19,5.34.39,4.87,1.81,13.37,2.8,18.14,0,.06.25.55.27.61.45,1.48,1.94,1,2.21-.74C437.29,208.12,439.2,187.41,434.75,187.68Z" transform="translate(0)"/><path class="cls-6" d="M448.28,198.05c.5-5.68-.24-30-2.36-33.38-.71-1.14-10.43.43-12.15.22-2.18-.27-4.06-1.78-4.74-.22-2.37,5.42-1.68,31.07-1,35.29Z" transform="translate(0)"/><path class="cls-9" d="M434.61,143.58l6.29.09c4.44.53,5.09,2.67,5.2,6.48l-.18,14.52H429l-.31-8.13-.81-5.86A6.9,6.9,0,0,1,434.61,143.58Z" transform="translate(0)"/><path class="cls-5" d="M437.16,145.43h0a1.54,1.54,0,0,1-1.53-1.56l0-3.54,3.3-.94-.24,4.51A1.55,1.55,0,0,1,437.16,145.43Z" transform="translate(0)"/><path class="cls-5" d="M437,139.41l2.09.28a1,1,0,1,0,.27-1.94l-2.21-.31Z" transform="translate(0)"/><path class="cls-5" d="M437.26,133.42a2.81,2.81,0,0,0-2.48,1,4.35,4.35,0,0,0-.83,2.91,10.61,10.61,0,0,0,.18,3.64c.63,1.75,2.46,1.45,3.89.9a1.46,1.46,0,0,0,.83-.69c.81-1.5.74-3.21.8-4.86A2.8,2.8,0,0,0,437.26,133.42Z" transform="translate(0)"/><path class="cls-9" d="M432.17,152.88,430.26,147c-.86.32-1.74.58-2.15,1.78-2.44,7.31,2.46,7.73,3.13,7A4.61,4.61,0,0,0,432.17,152.88Z" transform="translate(0)"/><path class="cls-5" d="M447.52,150.45c2.05,3.57,3.53,8,2,8.84-1.07.57-3.82-3.2-5.87-6.77s-2.85-6.94-1.78-7.51S445.48,146.87,447.52,150.45Z" transform="translate(0)"/><path class="cls-9" d="M440.92,145.82c0-1,1-1.2,2-.87s.27-.8,1.25-.14c3.39,2.27,4.69,6.47,5.31,8.17-.16.21-4.13,2.35-5,2.32C442.82,153.22,440.87,148.56,440.92,145.82Z" transform="translate(0)"/><path class="cls-5" d="M446.79,162.56c.16,1.45-.07,6.53,0,7.58.08,2.14,1.23,2.28,1.62.46.62-2.81,2.5-11.53,1.69-13.18a1.74,1.74,0,0,0-1.63-.86C446.58,156.93,446.6,160.8,446.79,162.56Z" transform="translate(0)"/><path class="cls-6" d="M438.52,138.43a3.43,3.43,0,0,0,1.27.12,2.13,2.13,0,0,0,1.57-1.45,3.42,3.42,0,0,0-1-3.48c-1.4-1.35-6-2.45-7.11-.16C431.87,136.34,436.64,138,438.52,138.43Z" transform="translate(0)"/><rect class="cls-4" x="138.22" y="187.56" width="67.41" height="6.44"/><polygon class="cls-4" points="205.63 201.43 138.22 201.43 131.2 206.42 198.61 206.42 205.63 201.43"/><rect class="cls-4" x="148.35" y="190.78" width="1.65" height="10.97"/><rect class="cls-4" x="148.35" y="205.41" width="1.65" height="12.96"/><rect class="cls-4" x="193.85" y="190.78" width="1.65" height="10.97"/><rect class="cls-4" x="193.85" y="202.1" width="1.65" height="16.27"/><rect class="cls-4" x="137.28" y="205.41" width="1.65" height="12.96"/><rect class="cls-4" x="182.79" y="202.1" width="1.65" height="16.27"/><path class="cls-5" d="M153,191.93c2.95,1.73,6.2,4.38,7.14,4.68,1.3.41,2.63,1.17,2.48,1.69s-1.06.73-2,.45a40.23,40.23,0,0,1-8.59-3.41c-2.65-1.56-5.11-3.11-5.8-4.22-.24-.39,0-.68.16-1C147,189.09,149.39,189.82,153,191.93Z" transform="translate(0)"/><path class="cls-6" d="M159.41,203.23c3,1,2.65,3.24,1.66,6a177.54,177.54,0,0,1-7.23,16.41c0,.06-.66.81-.69.86-.83,1.31-2.14.46-1.94-1.3C151.55,222.27,155.19,201.79,159.41,203.23Z" transform="translate(0)"/><path class="cls-6" d="M134.23,203.24c-3.37-3.16,3.87-5.73,6.09-6.67,1.82-.78,3.9-.07,5.75.64,4,1.54,8.25,3.21,12.26,4.75,1.51.13,4.59,1.79,3.53,4.86-1.16,3.38-3.29,1.44-3.94,1.64C154.48,208,137.61,206.41,134.23,203.24Z" transform="translate(0)"/><path class="cls-6" d="M151.41,224.9c-.48.2-.49,2.07-.49,2.07-.12.41,3.44,1.28,5.69,1.2a.72.72,0,0,0,.44-1.26C156.35,226.27,151.88,224.7,151.41,224.9Z" transform="translate(0)"/><path class="cls-6" d="M163.79,200.67c3.14.41,3.24,2.66,2.8,5.55a174.19,174.19,0,0,1-3.89,17.51c0,.06-.49.92-.51,1-.55,1.44-2,.87-2.15-.9C159.8,220.88,159.38,200.08,163.79,200.67Z" transform="translate(0)"/><path class="cls-6" d="M139.53,203.94c-3.92-2.44,2.25-4.73,4.24-6.08,1.64-1.12,3.82-.83,5.77-.49,4.23.72,17.37.87,17.36,6.34,0,3.57-2.94,2.06-3.54,2.38C159.89,206.29,143.47,206.39,139.53,203.94Z" transform="translate(0)"/><path class="cls-6" d="M160.17,223.48c-.43.29-.07,2.13-.07,2.13,0,.42,3.62.58,5.82.07a.72.72,0,0,0,.18-1.32C165.28,223.86,160.6,223.19,160.17,223.48Z" transform="translate(0)"/><path class="cls-9" d="M146.32,174.31l-4.39-.16a6.9,6.9,0,0,0-7.14,6.65l-2.22,20.07,19.81-2.79.59-16.63A6.9,6.9,0,0,0,146.32,174.31Z" transform="translate(0)"/><path class="cls-5" d="M133.63,181.09c-2.17,3.54-3.78,8-2.29,8.93,1.06.65,3.95-3.05,6.11-6.59s3.07-6.94,2-7.59S135.8,177.55,133.63,181.09Z" transform="translate(0)"/><path class="cls-5" d="M135.53,193.12c1.22,3.2,2.09,7.29,2.64,8.11.76,1.14,1.13,2.16.68,2.48s-1.48-.26-2.06-1.08a35.29,35.29,0,0,1-4.17-7.47c-1.09-2.87-2-5.62-1.89-6.92.06-.46.42-.53.72-.65C132.61,187.15,134.06,189.24,135.53,193.12Z" transform="translate(0)"/><path class="cls-9" d="M140.43,176.73c0-1-1-1.29-2-1a7.31,7.31,0,0,0-3.25,2,25,25,0,0,0-3.59,5.84c.15.23,4.1,2.64,5,2.66C138.3,184.19,140.4,179.54,140.43,176.73Z" transform="translate(0)"/><path class="cls-5" d="M143.74,176.14h0a1.54,1.54,0,0,0,1.54-1.55v-3.54l-3.3-1,.21,4.51A1.55,1.55,0,0,0,143.74,176.14Z" transform="translate(0)"/><path class="cls-5" d="M144,170.12l-2.09.27a1,1,0,0,1-.26-1.95l2.21-.29Z" transform="translate(0)"/><path class="cls-5" d="M143.72,164.13a2.78,2.78,0,0,1,2.47,1A4.28,4.28,0,0,1,147,168a10.6,10.6,0,0,1-.2,3.64c-.65,1.74-2.47,1.44-3.9.88a1.51,1.51,0,0,1-.83-.7,10.88,10.88,0,0,1-.76-4.86A2.8,2.8,0,0,1,143.72,164.13Z" transform="translate(0)"/><path class="cls-6" d="M142.89,166.32c.39-.66,1.31-.7,2.08-.64a2.5,2.5,0,0,0,2.15-.47,1.52,1.52,0,0,0-.18-2,3,3,0,0,0-2-.8,5.22,5.22,0,0,0-4.21,1.39c-1,1.06-1.66,3.44-.54,4.68a1.51,1.51,0,0,0,1.93.17C142.93,168.11,142.44,167.06,142.89,166.32Z" transform="translate(0)"/><path class="cls-5" d="M173.65,202.17c-3,1-2.68,3.23-1.7,6a183.13,183.13,0,0,0,7.38,16.8c0,.06.39.47.42.52.81,1.31,2.14.48,1.94-1.29C181.38,221.27,177.87,200.77,173.65,202.17Z" transform="translate(0)"/><path class="cls-6" d="M198.79,202.67a3.74,3.74,0,0,0,1.42-3.47c-.15-2.19-5.87-2.88-7.43-3.56-1.82-.78-3.91-.09-5.76.61-4,1.51-8.27,3.15-12.29,4.66C173.22,201,195.38,205.82,198.79,202.67Z" transform="translate(0)"/><path class="cls-6" d="M181.62,224.18c.47.2.47,2.08.47,2.08.12.4-3.45,1.26-5.7,1.16a.71.71,0,0,1-.43-1.26C176.67,225.52,181.14,224,181.62,224.18Z" transform="translate(0)"/><path class="cls-5" d="M171.16,202.4c-3.15.2-3.41,2.43-3.17,5.34.4,4.87,1.84,13.37,2.84,18.14,0,.06.25.55.27.61.45,1.47,1.94,1,2.21-.75C173.75,222.83,175.61,202.12,171.16,202.4Z" transform="translate(0)"/><path class="cls-6" d="M198.79,202.67c1-.91-1.26-1.74-1.38-3.47-.15-2.19-5.87-2.88-7.44-3.56-1.82-.78-3.9-.09-5.76.61-4,1.51-16.48,6.9-16.48,6.9l10.39,5.06S196.79,204.52,198.79,202.67Z" transform="translate(0)"/><path class="cls-6" d="M173.24,225.71c.4.32-.08,2.13-.08,2.13,0,.42-3.65.33-5.81-.33a.73.73,0,0,1-.09-1.34C168.11,225.74,172.83,225.4,173.24,225.71Z" transform="translate(0)"/><path class="cls-7" d="M188.17,174.26l6.29.08c4.44.54,5.09,2.68,5.2,6.49l.57,18.37L182,197.09l.3-9.87-.81-5.86A6.9,6.9,0,0,1,188.17,174.26Z" transform="translate(0)"/><path class="cls-5" d="M198.71,182.58c.38,4.14-.14,8.87-1.88,9-1.24.12-2.2-4.47-2.59-8.61s.3-7.58,1.53-7.69S198.32,178.45,198.71,182.58Z" transform="translate(0)"/><path class="cls-5" d="M191.72,188.54c-3.41.15-7.52,1-8.49.79-1.34-.25-2.43-.18-2.54.36s.83,1.25,1.8,1.45A34.52,34.52,0,0,0,191,192c3.07-.13,5,.17,6.11-.48.4-.23.72-1.45.71-1.77C197.76,188.53,195.87,188.36,191.72,188.54Z" transform="translate(0)"/><path class="cls-7" d="M194.51,175.67c.45-.94,2.2-.67,3,0s2.13,8.2,2,10c-.24.14-4.85.56-5.65.2C193.14,183.31,193.31,178.21,194.51,175.67Z" transform="translate(0)"/><path class="cls-5" d="M184.55,182.27c-2.53,3.29-6.13,6.4-7.52,5.33-1-.75,1.44-4.77,4-8.06s5.37-5.36,6.36-4.6S187.08,179,184.55,182.27Z" transform="translate(0)"/><path class="cls-5" d="M173,184.86c-3.41-.29-7.59,0-8.53-.3-1.3-.42-2.39-.5-2.57,0s.67,1.36,1.61,1.68a108.24,108.24,0,0,0,11.94,2c3.06.26,3.41-1.08,3.44-1.4C179,185.63,177.1,185.21,173,184.86Z" transform="translate(0)"/><path class="cls-7" d="M185.59,174.84c1-.39,2.55-.24,2.65.8s-3.91,8.21-5.26,9.45c-.27-.06-3.93-2.88-4.27-3.69C180,179,183,175.88,185.59,174.84Z" transform="translate(0)"/><path class="cls-5" d="M190.72,176.11h0a1.55,1.55,0,0,1-1.53-1.56l0-3.54,3.3-.94-.25,4.51A1.54,1.54,0,0,1,190.72,176.11Z" transform="translate(0)"/><path class="cls-5" d="M190.51,170.08l2.09.29a1,1,0,0,0,1.1-.84,1,1,0,0,0-.83-1.11l-2.21-.3Z" transform="translate(0)"/><path class="cls-5" d="M190.82,164.1a2.78,2.78,0,0,0-2.48,1,4.35,4.35,0,0,0-.83,2.91,10.61,10.61,0,0,0,.18,3.64c.63,1.74,2.46,1.45,3.89.9a1.49,1.49,0,0,0,.83-.69c.8-1.5.73-3.21.8-4.86A2.8,2.8,0,0,0,190.82,164.1Z" transform="translate(0)"/><path class="cls-7" d="M185.73,183.56l-1.91-5.92c-.86.32-1.74.58-2.15,1.78-2.44,7.31,2.45,7.73,3.13,7A4.63,4.63,0,0,0,185.73,183.56Z" transform="translate(0)"/><path class="cls-6" d="M201.86,173.44a12.8,12.8,0,0,0-7.7-5.6l-1.48,1a11.63,11.63,0,0,1,6.14,6.27,8.1,8.1,0,0,0,.73,1.58,1.91,1.91,0,0,0,1.41.91,1.81,1.81,0,0,0,1.69-1.71A4.12,4.12,0,0,0,201.86,173.44Z" transform="translate(0)"/><path class="cls-7" d="M193.66,170.27a1,1,0,0,0,1,.86,1.52,1.52,0,0,0,1.22-.75,3,3,0,0,0,.4-1.42,3.51,3.51,0,0,0-.3-1.81,1.85,1.85,0,0,0-1.45-1" transform="translate(0)"/><path class="cls-6" d="M186.37,166.22c0,1.14.77,2.19,1.75,2.08a8.6,8.6,0,0,1,.86-.15c.64,0,1.12.59,1.44,1.2a5.74,5.74,0,0,0,1.05,1.75,2.1,2.1,0,0,0,2.9-.46,4.32,4.32,0,0,0,.91-3.44,4.1,4.1,0,0,0-1.55-3C189.19,161.57,186.44,164,186.37,166.22Z" transform="translate(0)"/><polygon class="cls-9" points="553.73 458.8 481.02 458.8 500.85 424.21 573.56 424.21 553.73 458.8"/><path class="cls-5" d="M516.86,444c2.24-2.24,4.08-1,6.12,1.15a170.71,170.71,0,0,1,11.26,13.63l.76,1.08c.81,1.31-1.21,1.66-2.7.7C529.82,459,513.72,447.17,516.86,444Z" transform="translate(0)"/><path class="cls-6" d="M499.25,454.47c-3.29-.21-2.16-5.38-.78-7.35,1.14-1.63,3.28-2.13,5.22-2.51,4.22-.82,8.7-1.66,12.91-2.48,1.35-.69,6.15-.31,7,1.68,0,0-5,4.2-5.4,4.71C515,449.94,503.88,454.75,499.25,454.47Z" transform="translate(0)"/><path class="cls-6" d="M531.86,460.29s.9,1.38,1.79,1.54,2.65-1.77,4-3.59c.38-.53.17-1.12-.47-1C536.21,457.39,532,459.79,531.86,460.29Z" transform="translate(0)"/><path class="cls-5" d="M512.43,453.64c-.07-3.17,2.13-3.61,5.06-3.62a175.17,175.17,0,0,1,17.89,1.15c.07,0,1,.34,1,.35,1.51.33,1.17,1.85-.56,2.27C533,454.48,512.53,458.09,512.43,453.64Z" transform="translate(0)"/><path class="cls-6" d="M488.66,455.42c-4-2.34,2.51-6.44,4.47-7.85,1.6-1.16,3.79-.93,5.75-.64,4.25.61,12.48,1.47,16.73,2.08L514,456C510.53,456.28,492.66,457.76,488.66,455.42Z" transform="translate(0)"/><path class="cls-8" d="M493.06,425.69l-4.31.82a6.9,6.9,0,0,0-5.5,8.06l2.27,20.06,18.7-7.09-3.1-16.35A6.89,6.89,0,0,0,493.06,425.69Z" transform="translate(0)"/><path class="cls-6" d="M535.53,453.71c.35.38,2.11-.26,2.11-.26.42,0,0-3.67-.83-5.76a.72.72,0,0,0-1.33,0C535.12,448.6,535.18,453.33,535.53,453.71Z" transform="translate(0)"/><path class="cls-5" d="M481.25,434.22c-2.32,3.45-4.12,7.85-2.67,8.83,1,.69,4.07-2.88,6.39-6.32s3.37-6.8,2.34-7.49S483.57,430.78,481.25,434.22Z" transform="translate(0)"/><path class="cls-5" d="M477.86,447.69c-1.73,2.95-4.38,6.2-4.68,7.13-.41,1.3-1,2.24-1.5,2.08s-.72-1.32-.44-2.28a62.6,62.6,0,0,1,4.22-9.64l2.87-4.88c.39-.24,1,.79,1.3.95C480.69,441.68,480,444.11,477.86,447.69Z" transform="translate(0)"/><path class="cls-8" d="M488.24,430.16c.06-1-1-1.33-2-1.09s-.66-1.1-1.48-.25a50.83,50.83,0,0,0-5.7,7.79c.15.23,4,2.81,4.86,2.88C485.79,437.52,488.08,433,488.24,430.16Z" transform="translate(0)"/><path class="cls-5" d="M500.46,433.36c3.56,2.14,8.05,3.72,9,2.22.63-1.07-3.09-3.92-6.65-6.06s-7-3-7.6-1.95S496.9,431.22,500.46,433.36Z" transform="translate(0)"/><path class="cls-5" d="M514.08,436.05c3,1.58,6.42,4.06,7.37,4.31,1.32.35,2.28.86,2.15,1.4s-1.28.79-2.25.56a63.37,63.37,0,0,1-9.85-3.73l-5-2.62c-.26-.37.73-1.05.88-1.34C507.93,433.54,510.4,434.13,514.08,436.05Z" transform="translate(0)"/><path class="cls-8" d="M496.05,426.59c-1.05,0-1.28,1-1,2s-1.07.72-.17,1.49a50,50,0,0,0,8.06,5.29c.23-.15,2.61-4.12,2.63-5C503.53,428.66,498.86,426.6,496.05,426.59Z" transform="translate(0)"/><path class="cls-5" d="M491,428.05h0a1.55,1.55,0,0,0,1.16-1.85l-.78-3.45-3.43-.22,1.2,4.36A1.55,1.55,0,0,0,491,428.05Z" transform="translate(0)"/><path class="cls-5" d="M489.86,422.12l-2,.73a1,1,0,1,1-.67-1.85l2.08-.77Z" transform="translate(0)"/><path class="cls-5" d="M488.28,416.34a2.8,2.8,0,0,1,2.63.4,4.31,4.31,0,0,1,1.42,2.66,10.27,10.27,0,0,1,.61,3.59c-.24,1.85-2.09,1.95-3.6,1.72a1.53,1.53,0,0,1-1-.5,10.85,10.85,0,0,1-1.81-4.57A2.79,2.79,0,0,1,488.28,416.34Z" transform="translate(0)"/><path class="cls-6" d="M486.09,421a.91.91,0,0,0,1.25.32,1.47,1.47,0,0,0,.66-1.23,4.32,4.32,0,0,0-.24-1.42,5.49,5.49,0,0,0,4-1.12,1.55,1.55,0,0,0,.79-1.42c-.13-.64-.88-.92-1.53-1a6.67,6.67,0,0,0-3.46.29,4.19,4.19,0,0,0-2.42,2.39C484.77,418.87,485.61,419.9,486.09,421Z" transform="translate(0)"/><path class="cls-5" d="M545.88,418.71c-1.43,3.9-3.93,8-5.57,7.35-1.17-.42-.07-5,1.35-8.89s3.52-6.72,4.68-6.29S547.3,414.81,545.88,418.71Z" transform="translate(0)"/><path class="cls-5" d="M537,421.1c-3.15-1.33-7.21-2.35-8-2.93-1.11-.8-2.12-1.21-2.45-.77s.21,1.49,1,2.1a35.28,35.28,0,0,0,7.31,4.44c2.83,1.19,4.42,2.29,5.72,2.18.46,0,1.28-1,1.4-1.3C542.48,423.68,540.84,422.71,537,421.1Z" transform="translate(0)"/><path class="cls-7" d="M545.05,410.67c.81-.66,1.65,0,2.05,1s1.6.05,1.61,1.24c0,2.8-2.57,7.42-3.48,9-.28,0-4.62-1.56-5.19-2.23C540.54,417,542.87,412.45,545.05,410.67Z" transform="translate(0)"/><path class="cls-6" d="M540.13,444.68c.4,3.14,2.65,3.24,5.54,2.81a167.28,167.28,0,0,0,17.24-3.94c.06,0,2.65-.92,2.7-.94,1.45-.55-1.39-1.5-3.16-1.65C559.52,440.71,539.56,440.26,540.13,444.68Z" transform="translate(0)"/><path class="cls-6" d="M562.43,438.17c2-2.61,1.93-7.89-.47-8.14-2-.21-7.41.8-9,2-3.39,2.64-13.33,9.41-12.86,12.63.3,2.11,4.13,1.59,4.81,1.59C548.1,444.8,559.61,441.85,562.43,438.17Z" transform="translate(0)"/><path class="cls-6" d="M562.39,441.25s.7-1.5,1.56-1.78,2.87,1.4,4.43,3c.45.47.32,1.08-.33,1.06C567.09,443.53,562.59,441.72,562.39,441.25Z" transform="translate(0)"/><path class="cls-6" d="M532.14,445c.41,3.14,2.65,3.24,5.54,2.81a171.41,171.41,0,0,0,17.24-3.94l1.26-.39c1.45-.55.06-2-1.72-2.2C551.54,441,531.57,440.56,532.14,445Z" transform="translate(0)"/><path class="cls-6" d="M555.36,435.45c2-2.61-2.65-5.14-5.05-5.4-2-.21-3.75,1.08-5.31,2.3-3.38,2.64-13.33,9.41-12.86,12.63.31,2.11,4.14,1.59,4.81,1.59C540.11,445.1,552.54,439.14,555.36,435.45Z" transform="translate(0)"/><path class="cls-7" d="M547.61,408.2l6.22-1c4.46-.23,5.47,1.77,6.23,5.5l3.71,18L545.46,432,544,422l-1.8-5.64A6.9,6.9,0,0,1,547.61,408.2Z" transform="translate(0)"/><path class="cls-5" d="M561.58,412.51c3.09,2.78,5.91,6.61,4.74,7.91-.83.92-4.65-1.8-7.74-4.58s-4.92-5.78-4.09-6.7S558.49,409.73,561.58,412.51Z" transform="translate(0)"/><path class="cls-5" d="M560.48,421.62c-2.41,2.43-4.88,5.81-5.71,6.34-1.16.73-1.91,1.51-1.63,2s1.46.37,2.32-.15a35,35,0,0,0,6.85-5.12c2.16-2.17,3.78-3.24,4.17-4.49a3.06,3.06,0,0,0-.69-1.79C564.92,417.52,563.41,418.68,560.48,421.62Z" transform="translate(0)"/><path class="cls-7" d="M553.82,410.27c-.31-1,.61-1.53,1.65-1.55s.65-1.46,1.75-1c2.6,1,5.93,5.16,7,6.6-.08.27-3.18,3.7-4,4C558,416.81,554.65,413,553.82,410.27Z" transform="translate(0)"/><path class="cls-5" d="M550.44,409.59h0a1.54,1.54,0,0,1-1.77-1.27l-.58-3.5,3.09-1.49.53,4.48A1.55,1.55,0,0,1,550.44,409.59Z" transform="translate(0)"/><path class="cls-5" d="M549.2,403.69l2.11-.08a1,1,0,1,0-.07-2l-2.22.08Z" transform="translate(0)"/><path class="cls-5" d="M548.49,397.74a2.8,2.8,0,0,0-2.29,1.36,4.37,4.37,0,0,0-.31,3,10.58,10.58,0,0,0,.79,3.56c.93,1.61,2.68,1,4,.23a1.56,1.56,0,0,0,.71-.83,10.9,10.9,0,0,0,0-4.92A2.8,2.8,0,0,0,548.49,397.74Z" transform="translate(0)"/><path class="cls-7" d="M546.8,417.78l-2.89-5.5c-.8.46-1.62.86-1.81,2.12-1.16,7.62,3.73,7.2,4.27,6.32A4.64,4.64,0,0,0,546.8,417.78Z" transform="translate(0)"/><path class="cls-6" d="M544.21,399.69a2.15,2.15,0,0,0,2.41,1.73,7.59,7.59,0,0,1,.93-.27,2.3,2.3,0,0,1,1.88.93,6.17,6.17,0,0,0,1.55,1.51,2.58,2.58,0,0,0,3.16-.85,3.57,3.57,0,0,0,.26-3.4,5.8,5.8,0,0,0-2.36-2.59c-1.58-1-2.85-1.43-4.6-.84S543.81,397.58,544.21,399.69Z" transform="translate(0)"/><path class="cls-6" d="M530,434.7c-.49.13-1,.23-1.45.31a18,18,0,0,1-7-.24c-2.62-.66-5-2.41-5.16-5.26a5.76,5.76,0,0,1,3-5.47c3.82-2,11.37-1.78,14.61,1.32a4.88,4.88,0,0,1,1.34,5.08C534.57,432.76,532.33,434.07,530,434.7Z" transform="translate(0)"/><path class="cls-6" d="M531.46,427.45l-1.32-.09a14.2,14.2,0,0,0-.39-5.87c-.6-1.61-2.15-3.2-4-3.06a4.33,4.33,0,0,0-3.4,2.88,13.83,13.83,0,0,0-.65,5.14h-1.32a15.09,15.09,0,0,1,.74-5.62,5.55,5.55,0,0,1,4.55-3.71c2.45-.17,4.51,1.85,5.28,3.92A15.17,15.17,0,0,1,531.46,427.45Z" transform="translate(0)"/><path class="cls-6" d="M549.58,396.47a8.77,8.77,0,0,1,.19-3.35,2.93,2.93,0,0,1,2.37-2.11,2.8,2.8,0,0,1,1.9.67,3.91,3.91,0,0,1-3.61,6.78" transform="translate(0)"/><polygon class="cls-7" points="546.62 334.08 566.13 334.08 556.37 314.57 546.62 334.08"/><path class="cls-4" d="M611.79,323.55a.66.66,0,0,0,.1-1.31L501.05,305.59a.66.66,0,0,0-.75.56.66.66,0,0,0,.55.75l110.84,16.65Z" transform="translate(0)"/><rect class="cls-4" x="590.16" y="309.93" width="2.35" height="9.84" transform="translate(1129.34 714.04) rotate(-171.46)"/><rect class="cls-4" x="521.69" y="299.64" width="2.35" height="9.84" transform="translate(994.71 683.4) rotate(-171.46)"/><path class="cls-5" d="M598.62,305.9c-2.64,1.06-5.65,2.83-6.45,3-1.13.18-2.32.63-2.26,1.09s.78.73,1.61.61a32.09,32.09,0,0,0,7.49-1.73c2.38-.95,4.59-1.92,5.3-2.74.25-.29.1-.56,0-.81C603.92,304.32,601.83,304.61,598.62,305.9Z" transform="translate(0)"/><path class="cls-5" d="M590.13,319c-2-1.68-3.45-.47-5,1.44a141.6,141.6,0,0,0-8.25,12.19l-.54.95c-.57,1.16,1.13,1.28,2.3.37C580.59,332.47,593,321.39,590.13,319Z" transform="translate(0)"/><path class="cls-6" d="M579,333.7s-.64,1.22-1.36,1.43-2.34-1.26-3.58-2.67c-.36-.4-.23-.91.31-.87C575.17,331.65,578.85,333.3,579,333.7Z" transform="translate(0)"/><path class="cls-5" d="M589.92,320.91c-.57-2.57-2.44-2.49-4.8-1.92-4,.95-16,4.91-16,4.93-1.16.56.39,1.77,1.87,1.76C573.45,325.67,590.73,324.53,589.92,320.91Z" transform="translate(0)"/><path class="cls-6" d="M608.79,321.35c3.17-2.18-2.47-5.2-4.18-6.25-1.4-.87-3.2-.54-4.81-.19-3.5.76-9.47,1.69-13,2.45l1.79,5.32C591.53,322.72,605.6,323.54,608.79,321.35Z" transform="translate(0)"/><path class="cls-8" d="M603.36,296.93l3.63.42a5.76,5.76,0,0,1,5,6.37l-.7,16.79L595.11,316,597,302A5.75,5.75,0,0,1,603.36,296.93Z" transform="translate(0)"/><path class="cls-6" d="M570.76,325.6c0,.43-1.41,1.09-1.41,1.09-.41,0-2.49-2.73-2.87-3.91a.61.61,0,0,1,.81-.77A14.38,14.38,0,0,1,570.76,325.6Z" transform="translate(0)"/><path class="cls-5" d="M609,305.65c-1.6,3.07-4.1,6.14-5.39,5.47-.92-.48.48-4.12,2.08-7.19s3.63-5.17,4.55-4.69S610.62,302.59,609,305.65Z" transform="translate(0)"/><path class="cls-5" d="M599.62,309.46c-2.8.5-6.1,1.64-6.91,1.6-1.14-.05-2,.12-2.06.58s.82.94,1.65,1a28.75,28.75,0,0,0,7.12-.23c2.51-.45,4.88-1,5.74-1.62.3-.24.2-.53.16-.79C605.13,309,603,308.85,599.62,309.46Z" transform="translate(0)"/><path class="cls-8" d="M609.21,298.93c.74-.46,1.36.18,1.59,1a6.16,6.16,0,0,1,0,3.19,21.06,21.06,0,0,1-2.63,5.07,17,17,0,0,1-4-2.41A15.65,15.65,0,0,1,609.21,298.93Z" transform="translate(0)"/><path class="cls-5" d="M604.8,299h0a1.41,1.41,0,0,1-1.18-1.61l.49-3.21,3.11-.42-.81,4.06A1.41,1.41,0,0,1,604.8,299Z" transform="translate(0)"/><path class="cls-5" d="M605.4,293.52l1.86.54a.9.9,0,0,0,.5-1.73l-2-.57Z" transform="translate(0)"/><path class="cls-5" d="M606.48,288.14a2.56,2.56,0,0,0-2.38.53A4,4,0,0,0,603,291.2a9.53,9.53,0,0,0-.32,3.32c.34,1.67,2,1.64,3.41,1.33a1.32,1.32,0,0,0,.84-.52,9.79,9.79,0,0,0,1.36-4.29A2.56,2.56,0,0,0,606.48,288.14Z" transform="translate(0)"/><path class="cls-6" d="M607.19,290.68c-.35-.84-1.43-1.06-2.34-1.12s-2-.17-2.45-.95a1.8,1.8,0,0,1,.57-2.28,3.63,3.63,0,0,1,2.46-.59,6.17,6.17,0,0,1,4.7,2.4c1,1.43,1.35,4.35-.2,5.6a1.82,1.82,0,0,1-2.31-.14C606.82,292.78,607.58,291.63,607.19,290.68Z" transform="translate(0)"/><path class="cls-5" d="M518.35,292.47c2,2.07,3.95,4.93,4.63,5.38.95.63,1.84,1.54,1.6,1.93s-1,.34-1.72-.11a32.78,32.78,0,0,1-6.09-4.69c-1.76-1.85-3.37-3.66-3.67-4.71-.11-.37.14-.54.34-.73C514.19,288.83,516,290,518.35,292.47Z" transform="translate(0)"/><path class="cls-5" d="M521,306.4c2.16,1.52,1.37,3.21-.07,5.18a139.63,139.63,0,0,1-9.57,11.18l-.78.78c-1,.85-1.53-.75-.95-2.12C510.57,319.17,518,304.28,521,306.4Z" transform="translate(0)"/><path class="cls-6" d="M509.8,321s-1,.94-1,1.69,1.83,1.92,3.52,2.75c.48.23.94,0,.76-.54C512.8,324.18,510.23,321.06,509.8,321Z" transform="translate(0)"/><path class="cls-6" d="M519.64,281.6a19.76,19.76,0,0,0,2.29-6.29v-.07a5.33,5.33,0,0,0-7-5.57,9.08,9.08,0,0,0-2.2,1,10,10,0,0,0-4,5.54C511,279.91,515.37,281.22,519.64,281.6Z" transform="translate(0)"/><path class="cls-5" d="M525.3,305.36c2.47.92,2.51,2.52,1.62,4.79-1.49,3.78-7.33,14.38-7.36,14.43-.72,1.06-2.11.17-1.9-1.3C518,320.86,521.83,304.07,525.3,305.36Z" transform="translate(0)"/><path class="cls-6" d="M504.37,305.06c-2.57-1.75-1.93-5.19-1.78-6.62.19-1.82,5.66,1.46,7,.94,1.54-.6,3.25,0,4.78.67l14.88,6.15-5.7,3.84C520.67,309.56,507.57,307.23,504.37,305.06Z" transform="translate(0)"/><path class="cls-7" d="M518.07,281.34l-3.48-1.13a5.75,5.75,0,0,0-7.23,3.69l-4.77,14.54,15,3,2.17-8.33,1.18-5C521.56,284.51,521.09,282.32,518.07,281.34Z" transform="translate(0)"/><path class="cls-6" d="M517.85,323.17c-.42.05-.86,1.54-.86,1.54-.19.3,2.46,1.82,4.28,2.27a.6.6,0,0,0,.64-.91A14.08,14.08,0,0,0,517.85,323.17Z" transform="translate(0)"/><path class="cls-5" d="M509.29,286.92c.18,3.45,1.17,7.28,2.63,7.21,1-.05,1.27-3.95,1.1-7.4s-1.15-6.21-2.18-6.16S509.12,283.46,509.29,286.92Z" transform="translate(0)"/><path class="cls-5" d="M516.25,294.29c2.34,1.63,4.87,4,5.62,4.34,1.06.42,1.8.95,1.64,1.38s-1.15.51-1.92.22a28.56,28.56,0,0,1-6.38-3.17c-2.1-1.46-4-2.9-4.55-3.87-.18-.34,0-.56.19-.78C511.44,291.56,513.41,292.32,516.25,294.29Z" transform="translate(0)"/><path class="cls-7" d="M511.92,280.72c-.48-.72-1.31-.4-1.87.27a6.18,6.18,0,0,0-1.3,2.9,21.35,21.35,0,0,0,.28,5.7c.21.09,4.06-.11,4.67-.51C514,286.85,513.22,282.67,511.92,280.72Z" transform="translate(0)"/><path class="cls-5" d="M515.41,282.75h0a1.42,1.42,0,0,0,1.75-1l.89-3.11L515.39,277l-.95,4A1.42,1.42,0,0,0,515.41,282.75Z" transform="translate(0)"/><path class="cls-5" d="M517.15,277.51l-1.91-.29a.9.9,0,0,1-.76-1,.92.92,0,0,1,1-.76l2,.3Z" transform="translate(0)"/><path class="cls-5" d="M518.42,272.17a2.58,2.58,0,0,1,1.94,1.47,4.06,4.06,0,0,1,0,2.77,9.52,9.52,0,0,1-1.09,3.15c-1,1.37-2.54.65-3.65-.2a1.45,1.45,0,0,1-.56-.83,10,10,0,0,1,.56-4.47A2.56,2.56,0,0,1,518.42,272.17Z" transform="translate(0)"/><path class="cls-6" d="M520.85,275.36a7.12,7.12,0,0,1-6.82-.67,5.32,5.32,0,0,1,2.15-2.75,3.51,3.51,0,0,1,3.33-.09A3.6,3.6,0,0,1,520.85,275.36Z" transform="translate(0)"/><path class="cls-5" d="M442.21,291.28c-2,1.67-1.55,3.2,0,5.05,2.64,3.09,11.64,11.2,11.68,11.23,1,.77,2.05-.53,1.37-1.85C454.18,303.54,445.07,288.92,442.21,291.28Z" transform="translate(0)"/><path class="cls-6" d="M455.08,305.67c.42-.1,1.32,1.17,1.32,1.17.28.23-1.73,2.52-3.3,3.55a.6.6,0,0,1-.91-.65A14,14,0,0,1,455.08,305.67Z" transform="translate(0)"/><path class="cls-7" d="M452.14,274.35c-.12-3.11-3.38-4.37-4.68-5-1.64-.8-1.74,5.57-2.88,6.42-1.33,1-1.69,2.78-1.95,4.41C442.05,283.71,440,294,440,294h8.19C449.29,291.32,452.3,278.21,452.14,274.35Z" transform="translate(0)"/><path class="cls-5" d="M430.53,287.54c-2.6.46-2.92,2-2.44,4.42.79,4,4.67,15.46,4.69,15.51.51,1.17,2,.54,2.1-.94C435,304.09,434.17,286.88,430.53,287.54Z" transform="translate(0)"/><path class="cls-6" d="M434.71,306.38c.41.13.58,1.68.58,1.68.13.32-2.75,1.35-4.62,1.47a.6.6,0,0,1-.47-1A14.14,14.14,0,0,1,434.71,306.38Z" transform="translate(0)"/><path class="cls-7" d="M447.48,277.63c1.4-2.77-.82-5.47-1.64-6.65-1-1.5-4.25,4-5.66,4.19-1.64.22-2.83,1.6-3.86,2.89-2.23,2.8-9.05,10.77-9.05,10.77l7.14,4C436.68,291,445.73,281.08,447.48,277.63Z" transform="translate(0)"/><path class="cls-5" d="M436.57,257.59c-3.21-1.3-6.5-3.5-6-4.85.39-1,4.16.09,7.36,1.39s5.49,3.12,5.1,4.08S439.77,258.88,436.57,257.59Z" transform="translate(0)"/><path class="cls-5" d="M431.89,248.59c-.77-2.74-2.21-5.92-2.25-6.73-.06-1.14-.32-2-.78-2s-.86.91-.83,1.74a28.62,28.62,0,0,0,.9,7.07c.69,2.46,1.41,4.77,2.16,5.56.26.28.54.15.8.08C432.88,254,432.82,251.92,431.89,248.59Z" transform="translate(0)"/><path class="cls-8" d="M443.28,257.14c.52.69,0,1.37-.86,1.67a6.11,6.11,0,0,1-3.17.28A21,21,0,0,1,434,257c0-.23,1.44-3.79,2-4.24A15.72,15.72,0,0,1,443.28,257.14Z" transform="translate(0)"/><path class="cls-6" d="M440.24,253.94c-1-2-6.53-1.26-6.81-3.48v-.07c-.45-3.81,3.34-7.16,6.38-4.83C443.48,248.39,444.51,253.56,440.24,253.94Z" transform="translate(0)"/><path class="cls-8" d="M437.29,256.49l3.48-1.13a5.75,5.75,0,0,1,7.24,3.69l4.76,14.54-15,3-2.17-8.32-1.18-5C433.8,259.65,434.27,257.47,437.29,256.49Z" transform="translate(0)"/><path class="cls-5" d="M440,257.89h0a1.41,1.41,0,0,1-1.75-1l-.89-3.12,2.66-1.68.95,4A1.41,1.41,0,0,1,440,257.89Z" transform="translate(0)"/><path class="cls-5" d="M438.21,252.65l1.91-.28a.92.92,0,0,0,.76-1,.9.9,0,0,0-1-.75l-2,.3Z" transform="translate(0)"/><path class="cls-5" d="M437,247.32a2.54,2.54,0,0,0-1.94,1.47,4,4,0,0,0,0,2.77,9.75,9.75,0,0,0,1.09,3.15c1,1.37,2.54.64,3.66-.21a1.33,1.33,0,0,0,.55-.82,9.88,9.88,0,0,0-.55-4.47A2.56,2.56,0,0,0,437,247.32Z" transform="translate(0)"/><path class="cls-6" d="M434.52,250.5a7.08,7.08,0,0,0,6.81-.67,5.3,5.3,0,0,0-2.15-2.74,3.51,3.51,0,0,0-3.33-.09A3.55,3.55,0,0,0,434.52,250.5Z" transform="translate(0)"/><path class="cls-5" d="M440,260.94c-3.34.88-7.3,1.1-7.67-.31-.26-1,3.38-2.42,6.72-3.3s6.27-.78,6.53.22S443.37,260.06,440,260.94Z" transform="translate(0)"/><path class="cls-5" d="M430.89,256.55c-2.26-1.74-5.32-3.42-5.84-4.05-.73-.87-1.45-1.42-1.81-1.13s-.15,1.24.37,1.89a29,29,0,0,0,4.95,5.12c2,1.56,4,3,5.07,3.16.37.07.52-.2.69-.42C434.94,260.3,433.63,258.65,430.89,256.55Z" transform="translate(0)"/><path class="cls-8" d="M445.13,256.56c.83.24.78,1.13.31,1.86a6.06,6.06,0,0,1-2.37,2.12,20.75,20.75,0,0,1-5.52,1.46,16.75,16.75,0,0,1-.93-4.6A15.7,15.7,0,0,1,445.13,256.56Z" transform="translate(0)"/><path class="cls-6" d="M451.76,253.2a3.37,3.37,0,0,0-1.3-1.85c-.4-.3-.84-.55-1.22-.88a2,2,0,0,1-.73-1.29c0-.66.42-1.28.34-1.94a1.66,1.66,0,0,0-1.45-1.3,4.76,4.76,0,0,0-2.07.26l-5.55,1.54,2.35,2.46a8.11,8.11,0,0,1,4.42,2.57,15.17,15.17,0,0,0,1.87,2.12,2.33,2.33,0,0,0,2.62.35A2,2,0,0,0,451.76,253.2Z" transform="translate(0)"/><path class="cls-5" d="M356.61,291.14c1.21,2.34.16,3.55-2,4.62-3.65,1.8-15.11,5.69-15.16,5.71-1.24.3-1.67-1.3-.53-2.24C340.78,297.67,354.92,287.84,356.61,291.14Z" transform="translate(0)"/><path class="cls-6" d="M339.11,299.27c-.35-.25-1.68.56-1.68.56-.34.1.59,3,1.64,4.56a.59.59,0,0,0,1.08-.23A13.91,13.91,0,0,0,339.11,299.27Z" transform="translate(0)"/><path class="cls-6" d="M354.18,271.66c1.34-2.8,4.83-2.68,6.27-2.74,1.83-.09-.6,5.81.11,7,.83,1.43.45,3.22.06,4.82-.87,3.46-3.05,13.73-3.05,13.73L350,291.28C350.1,288.38,352.5,275.14,354.18,271.66Z" transform="translate(0)"/><path class="cls-5" d="M362.69,289.68c2.55-.65,3.5.64,4.05,3,.93,4,2.15,16,2.15,16.05,0,1.29-1.64,1.34-2.3,0C365.5,306.58,359.1,290.59,362.69,289.68Z" transform="translate(0)"/><path class="cls-6" d="M366.69,308.56c-.33.29.16,1.77.16,1.77,0,.35,3.06.09,4.81-.57a.6.6,0,0,0,0-1.11A14.07,14.07,0,0,0,366.69,308.56Z" transform="translate(0)"/><path class="cls-6" d="M359.44,272.38c.56-3.06,4-3.86,5.33-4.3,1.74-.56,1,5.76,2,6.76,1.17,1.16,1.28,3,1.32,4.64.07,3.57.63,13.32.63,13.32l-8.05,1C359.92,291,358.74,276.17,359.44,272.38Z" transform="translate(0)"/><path class="cls-5" d="M365.83,262.41c2.91,1.86,6.61,3.27,7.4,2,.55-.87-2.48-3.33-5.4-5.19s-5.72-2.67-6.28-1.8S362.91,260.55,365.83,262.41Z" transform="translate(0)"/><path class="cls-5" d="M375.87,261c2.68-1,6.1-1.63,6.79-2.07,1-.61,1.82-.9,2.08-.52s-.25,1.23-.94,1.69a29.23,29.23,0,0,1-6.28,3.36c-2.4.86-4.71,1.6-5.79,1.46-.38-.06-.44-.36-.53-.61C370.86,263.36,372.61,262.19,375.87,261Z" transform="translate(0)"/><path class="cls-8" d="M362.31,256.68c-.87,0-1.09.83-.88,1.67a6.16,6.16,0,0,0,1.62,2.75,21.45,21.45,0,0,0,4.8,3.08c.2-.13,2.27-3.38,2.3-4.1C368.48,258.57,364.64,256.75,362.31,256.68Z" transform="translate(0)"/><path class="cls-6" d="M365.17,253.21c1-2,6.54-1.26,6.82-3.49v-.06c.44-3.81-3.34-7.17-6.38-4.83C361.94,247.66,360.91,252.83,365.17,253.21Z" transform="translate(0)"/><path class="cls-9" d="M368.13,255.76l-3.48-1.13a5.74,5.74,0,0,0-7.24,3.69l-4.76,14.54,15,2.95,2.16-8.32,1.19-5C371.61,258.92,371.14,256.74,368.13,255.76Z" transform="translate(0)"/><path class="cls-5" d="M365.47,257.16h0a1.41,1.41,0,0,0,1.74-1l.89-3.12-2.65-1.68-.95,4A1.41,1.41,0,0,0,365.47,257.16Z" transform="translate(0)"/><path class="cls-5" d="M367.2,251.92l-1.9-.29a.9.9,0,0,1,.26-1.78l2,.31Z" transform="translate(0)"/><path class="cls-5" d="M368.47,246.58a2.57,2.57,0,0,1,1.94,1.48,4,4,0,0,1,0,2.76A10,10,0,0,1,369.3,254c-1,1.37-2.54.64-3.66-.21a1.36,1.36,0,0,1-.55-.83,9.91,9.91,0,0,1,.55-4.47A2.56,2.56,0,0,1,368.47,246.58Z" transform="translate(0)"/><path class="cls-6" d="M370.9,249.77a7.1,7.1,0,0,1-6.82-.67,5.34,5.34,0,0,1,2.16-2.75,3.07,3.07,0,0,1,4.66,3.42Z" transform="translate(0)"/><path class="cls-5" d="M365.39,260.21c3.35.88,7.31,1.09,7.68-.32.26-1-3.38-2.41-6.73-3.29s-6.26-.78-6.52.21S362.05,259.33,365.39,260.21Z" transform="translate(0)"/><path class="cls-5" d="M374.53,255.81c2.26-1.73,5.32-3.41,5.84-4,.72-.88,1.45-1.42,1.81-1.14s.14,1.25-.37,1.9a29.32,29.32,0,0,1-4.95,5.12c-2,1.55-4,3-5.07,3.16-.38.06-.53-.21-.69-.42C370.47,259.57,371.79,257.92,374.53,255.81Z" transform="translate(0)"/><path class="cls-9" d="M360.29,255.83c-.83.24-.78,1.13-.32,1.86a6.16,6.16,0,0,0,2.38,2.12,21.53,21.53,0,0,0,5.52,1.46c.14-.18,1.12-3.9.93-4.61C366.75,255.74,362.54,255.18,360.29,255.83Z" transform="translate(0)"/><path class="cls-4" d="M398.73,244.06a4.46,4.46,0,1,1-4.46-4.46A4.46,4.46,0,0,1,398.73,244.06Z" transform="translate(0)"/><path class="cls-6" d="M208.05,354.65c0,3.38-5.77,6.11-12.89,6.11s-12.89-2.73-12.89-6.11,5.77-6.11,12.89-6.11S208.05,351.28,208.05,354.65Z" transform="translate(0)"/><path class="cls-4" d="M195.16,356.21a1.56,1.56,0,0,1-1.56-1.56v-45a1.56,1.56,0,1,1,3.12,0v45A1.56,1.56,0,0,1,195.16,356.21Z" transform="translate(0)"/><path class="cls-6" d="M257.51,354.65c0,3.38-5.77,6.11-12.89,6.11s-12.89-2.73-12.89-6.11,5.77-6.11,12.89-6.11S257.51,351.28,257.51,354.65Z" transform="translate(0)"/><path class="cls-4" d="M244.62,356.21a1.56,1.56,0,0,1-1.57-1.56v-45a1.57,1.57,0,0,1,3.13,0v45A1.56,1.56,0,0,1,244.62,356.21Z" transform="translate(0)"/><path class="cls-6" d="M307,354.65c0,3.38-5.77,6.11-12.89,6.11s-12.89-2.73-12.89-6.11,5.78-6.11,12.89-6.11S307,351.28,307,354.65Z" transform="translate(0)"/><path class="cls-4" d="M294.07,356.21a1.56,1.56,0,0,1-1.56-1.56v-45a1.57,1.57,0,0,1,3.13,0v45A1.56,1.56,0,0,1,294.07,356.21Z" transform="translate(0)"/><path class="cls-4" d="M220.11,352.82h-.62a36.65,36.65,0,0,1-25.47-11l1-1a35,35,0,0,0,49.29.88l1,1A36.68,36.68,0,0,1,220.11,352.82Z" transform="translate(0)"/><path class="cls-4" d="M220.11,329.1h-.62a36.7,36.7,0,0,1-25.47-11l1-1a35,35,0,0,0,49.29.88l1,1A36.68,36.68,0,0,1,220.11,329.1Z" transform="translate(0)"/><path class="cls-4" d="M269.88,354h-.63a36.61,36.61,0,0,1-25.46-11l1-1a35,35,0,0,0,49.29.88l1,1A36.66,36.66,0,0,1,269.88,354Z" transform="translate(0)"/><path class="cls-4" d="M269.88,330.32h-.63a36.61,36.61,0,0,1-25.46-11l1-1a35,35,0,0,0,49.29.87l1,1A36.66,36.66,0,0,1,269.88,330.32Z" transform="translate(0)"/><path class="cls-5" d="M261.46,333.69c-1.84,1.88-1.2,3.34.58,5,2.95,2.79,12.75,9.9,12.79,9.93,1.11.66,2-.74,1.17-2C274.66,344.62,264.06,331,261.46,333.69Z" transform="translate(0)"/><path class="cls-6" d="M266.51,317.63c-.73-3-4.18-3.62-5.57-4-1.77-.46-.62,5.81-1.57,6.86-1.1,1.23-1.1,3.06-1,4.71.12,3.57.95,14.12.95,14.12l7.62-4.06C267.45,332.44,267.43,321.38,266.51,317.63Z" transform="translate(0)"/><path class="cls-6" d="M275.78,346.64c.41-.14,1.44,1,1.44,1,.3.19-1.45,2.68-2.91,3.87a.6.6,0,0,1-1-.55A13.83,13.83,0,0,1,275.78,346.64Z" transform="translate(0)"/><path class="cls-5" d="M259.72,332.7c-2.51.79-2.63,2.39-1.86,4.7,1.3,3.85,6.6,14.74,6.63,14.78.66,1.1,2.1.28,2-1.19C266.23,348.55,263.25,331.59,259.72,332.7Z" transform="translate(0)"/><path class="cls-6" d="M271.73,320.9c.77-3-2-5.16-3.05-6.13-1.34-1.24-3.27,4.84-4.61,5.32-1.55.56-2.41,2.18-3.14,3.66-1.56,3.21-5.8,12.91-5.8,12.91h8.64C265.59,334.41,270.77,324.65,271.73,320.9Z" transform="translate(0)"/><path class="cls-6" d="M266.26,350.86c.43.07.79,1.59.79,1.59.17.31-2.55,1.69-4.39,2.05a.6.6,0,0,1-.6-.94A14.08,14.08,0,0,1,266.26,350.86Z" transform="translate(0)"/><path class="cls-5" d="M253.13,309.13c-2.67,1-5.73,2.66-6.54,2.76-1.13.14-2.34.56-2.29,1s.76.76,1.58.67a33.25,33.25,0,0,0,7.55-1.49c2.4-.88,4.65-1.78,5.39-2.58.25-.28.11-.56,0-.81C258.48,307.72,256.38,308,253.13,309.13Z" transform="translate(0)"/><path class="cls-6" d="M255.77,299c-1.61,1.25-2.83-.93-2.89-3.78,0,0-1.79-3.81,6.08-3.81,2,0,2.88,1.89,2.76,4C261.41,301.19,260,298.9,255.77,299Z" transform="translate(0)"/><path class="cls-7" d="M256.86,302.64l3.48-1.13a5.74,5.74,0,0,1,7.24,3.69l4.76,14.54-15,3-2.17-8.33-1.18-5C253.37,305.81,253.85,303.62,256.86,302.64Z" transform="translate(0)"/><path class="cls-5" d="M263.71,308.71c-1.23,3.23-3.37,6.57-4.73,6-1-.36,0-4.15,1.25-7.38s3-5.54,4-5.17S265,305.48,263.71,308.71Z" transform="translate(0)"/><path class="cls-5" d="M254.81,313.56c-2.72.82-5.87,2.32-6.69,2.38-1.14.08-2,.35-2,.81s.93.84,1.76.8a28.45,28.45,0,0,0,7-1c2.45-.74,4.74-1.51,5.52-2.27.28-.27.15-.55.07-.8C260.23,312.46,258.12,312.56,254.81,313.56Z" transform="translate(0)"/><path class="cls-7" d="M263.14,302c.68-.54,1.37,0,1.69.83a6,6,0,0,1,.33,3.16,21.17,21.17,0,0,1-2,5.34c-.23,0-3.82-1.37-4.28-1.94A15.63,15.63,0,0,1,263.14,302Z" transform="translate(0)"/><path class="cls-5" d="M259.52,304h0a1.41,1.41,0,0,1-1.75-1l-.88-3.12,2.65-1.68.95,4A1.4,1.4,0,0,1,259.52,304Z" transform="translate(0)"/><path class="cls-5" d="M257.78,298.81l1.91-.29a.9.9,0,0,0-.26-1.78l-2,.3Z" transform="translate(0)"/><path class="cls-5" d="M256.52,293.47a2.56,2.56,0,0,0-1.94,1.47,4,4,0,0,0,0,2.77,10,10,0,0,0,1.09,3.15c1,1.37,2.54.64,3.66-.21a1.33,1.33,0,0,0,.55-.82,9.9,9.9,0,0,0-.55-4.47A2.56,2.56,0,0,0,256.52,293.47Z" transform="translate(0)"/><path class="cls-6" d="M254.09,296.66a7.1,7.1,0,0,0,6.82-.68,5.35,5.35,0,0,0-2.16-2.74,3.51,3.51,0,0,0-3.33-.09A3.57,3.57,0,0,0,254.09,296.66Z" transform="translate(0)"/><path class="cls-6" d="M252.88,295.25l1.2-.26a2.33,2.33,0,0,1,1-.07.78.78,0,0,1,.63.67.81.81,0,0,1-.46.68,4.42,4.42,0,0,1-.82.29c-1.27.41-1.76,1.35-2.55,2.31a1.49,1.49,0,0,1-1.9.54c-.94-.5-.54-1.6-.12-2.35A4.1,4.1,0,0,1,252.88,295.25Z" transform="translate(0)"/><path class="cls-6" d="M264.69,293.58l-1.73-.11a3.92,3.92,0,0,0-1.44.09,1.44,1.44,0,0,0-1,.94.75.75,0,0,0,.56.78,6.11,6.11,0,0,0,1.16.21c1.82.29,2.38,1.4,3.37,2.46a2.16,2.16,0,0,0,2.73.35c1.47-.79,1.08-2.1.58-3C268.09,294,266.48,293.71,264.69,293.58Z" transform="translate(0)"/><path class="cls-4" d="M183.33,110.93H77.39V31.1H183.33ZM80.52,107.81H180.2V34.23H80.52Z" transform="translate(0)"/><rect class="cls-4" x="87.82" y="33.28" width="1.43" height="76.7"/><rect class="cls-4" x="99.55" y="33.28" width="1.43" height="76.7"/><rect class="cls-4" x="111.27" y="33.28" width="1.43" height="76.7"/><rect class="cls-4" x="123" y="33.28" width="1.43" height="76.7"/><rect class="cls-4" x="134.72" y="33.28" width="1.43" height="76.7"/><rect class="cls-4" x="88.54" y="41.77" width="46.73" height="1.43"/><rect class="cls-4" x="88.54" y="51.49" width="46.73" height="1.43"/><rect class="cls-4" x="88.54" y="61.2" width="46.73" height="1.43"/><rect class="cls-4" x="88.54" y="70.91" width="46.73" height="1.43"/><rect class="cls-4" x="88.54" y="80.63" width="46.73" height="1.43"/><rect class="cls-4" x="88.54" y="90.34" width="46.73" height="1.43"/><rect class="cls-4" x="88.54" y="100.05" width="46.73" height="1.43"/><path class="cls-5" d="M161,84.08c-.59,2.57,1.13,3.3,3.51,3.81,4,.85,16.5,2.46,16.55,2.46,1.28,0,.41-1.77-.93-2.4C177.94,86.9,161.86,80.47,161,84.08Z" transform="translate(0)"/><path class="cls-6" d="M154.85,66.35c-3.3-2-3.69,4.42-3.93,6.41-.2,1.63.84,3.13,1.84,4.45,2.15,2.85,8.28,11.52,8.28,11.52.19-.15,5.42-5.65,5.42-5.65C165.28,80.44,158.17,68.33,154.85,66.35Z" transform="translate(0)"/><path class="cls-6" d="M181.32,88.19c.38-.19,1.57.82,1.57.82.16.38-1.43,3.41-2.35,4.24a.6.6,0,0,1-1-.41A14.11,14.11,0,0,1,181.32,88.19Z" transform="translate(0)"/><path class="cls-5" d="M140,78.4c-2.59-.51-3.26,1.23-3.69,3.63-.71,4-1.9,16.57-1.9,16.62.06,1.29,1.78.35,2.37-1C137.78,95.4,143.66,79.11,140,78.4Z" transform="translate(0)"/><path class="cls-6" d="M157.54,71.63c1.86-3.37-4.54-3.54-6.54-3.72-1.64-.14-3.1,1-4.38,2-2.78,2.25-11.23,8.67-11.23,8.67.15.19,5.82,5.22,5.82,5.22C143.82,82.52,155.67,75,157.54,71.63Z" transform="translate(0)"/><path class="cls-6" d="M136.61,98.82c.2.38-.77,1.6-.77,1.6-.37.17-3.46-1.32-4.32-2.21a.6.6,0,0,1,.38-1A14,14,0,0,1,136.61,98.82Z" transform="translate(0)"/><path class="cls-9" d="M154.82,50.52l3.63.42a5.74,5.74,0,0,1,5.05,6.36l-2.27,16.15-14.66-3.92,1.89-14A5.73,5.73,0,0,1,154.82,50.52Z" transform="translate(0)"/><path class="cls-5" d="M146.73,50.61c-2.45-2.44-4.63-5.75-3.6-6.78.73-.73,3.79,1.7,6.23,4.14s3.84,5,3.11,5.74S149.17,53.05,146.73,50.61Z" transform="translate(0)"/><path class="cls-5" d="M146.63,40.5c.84-2.72,1.36-6.17,1.77-6.87.57-1,.83-1.86.43-2.1s-1.21.3-1.65,1A29.43,29.43,0,0,0,144.11,39c-.76,2.44-1.4,4.78-1.21,5.85.07.37.38.42.63.5C144.52,45.61,145.61,43.81,146.63,40.5Z" transform="translate(0)"/><path class="cls-9" d="M154.11,52.82c.21.84-1,2.45-1.87,2.42a1,1,0,0,1-1.34,0A51.11,51.11,0,0,1,144.56,49c.08-.21,2.81-2.94,3.51-3.13C149.9,47.19,153.53,50.55,154.11,52.82Z" transform="translate(0)"/><path class="cls-5" d="M156.26,52.59h0A1.41,1.41,0,0,1,155.08,51l.49-3.2,3.12-.42-.82,4A1.41,1.41,0,0,1,156.26,52.59Z" transform="translate(0)"/><path class="cls-5" d="M156.87,47.11l1.85.53a.9.9,0,1,0,.5-1.73l-2-.56Z" transform="translate(0)"/><path class="cls-5" d="M157.94,41.73a2.57,2.57,0,0,0-2.38.53,4,4,0,0,0-1.13,2.53,9.78,9.78,0,0,0-.32,3.32c.35,1.66,2,1.64,3.41,1.33a1.41,1.41,0,0,0,.85-.52,10.06,10.06,0,0,0,1.36-4.29A2.56,2.56,0,0,0,157.94,41.73Z" transform="translate(0)"/><path class="cls-6" d="M155.06,41.63c-1.78.41-.83,1.76-.42,2.08a2.07,2.07,0,0,0,1.52.21,1.56,1.56,0,0,1,1.45.41c.34.46.9,2.23,2.15,2.18C162.17,46.42,165.58,39.21,155.06,41.63Z" transform="translate(0)"/><path class="cls-5" d="M155.1,51.38c-2.45-2.45-4.63-5.76-3.6-6.79.72-.73,3.79,1.7,6.23,4.14s3.84,5,3.11,5.75S157.54,53.82,155.1,51.38Z" transform="translate(0)"/><path class="cls-5" d="M155,41.27c.84-2.72,1.36-6.17,1.77-6.88.57-1,.82-1.85.43-2.09s-1.21.3-1.65,1a29,29,0,0,0-3.07,6.42c-.76,2.44-1.4,4.77-1.21,5.84.07.38.38.43.63.51C152.89,46.38,154,44.57,155,41.27Z" transform="translate(0)"/><path class="cls-9" d="M162.47,53.58c.22.85-1,2.46-1.86,2.42a1,1,0,0,1-1.34,0,51,51,0,0,1-6.34-6.22,16.94,16.94,0,0,1,3.51-3.13C158.27,48,161.9,51.32,162.47,53.58Z" transform="translate(0)"/><path class="cls-4" d="M197.8,437.36l-1.1,5.74c-2.75,2.78-5.61,5.4-8.46,8.06-1.08,1,.52,2.35,2.41,1.21a92.12,92.12,0,0,0,10.18-8.07c1.43-1.35,2.14-3.1,3.2-4.75A9.26,9.26,0,0,0,197.8,437.36Z" transform="translate(0)"/><path class="cls-4" d="M194.14,436.15c.11,1.25.23,2.5.34,3.76-3.73,1-7.38,2.25-11.15,3.17-1.37.33-.37,2.18.66,2a85,85,0,0,0,13.71-3.15,16.14,16.14,0,0,1-.2-6.85C196.6,435.28,195,436,194.14,436.15Z" transform="translate(0)"/><path class="cls-4" d="M225,448.79c-.45-.69-5.92-5.66-5.64-8.79a3.31,3.31,0,0,1-2.61-.79c-.81-.86-.41-2.23-.33-3.41.13-1.88,0-1.95-1.54-3.06-2-1.45-5.42.89-7.89,1l.27,3c.26,1.76,2.57,6.07,8.63,6.23a35.78,35.78,0,0,0,7.23,7.71,1.53,1.53,0,0,0,1.77,0C225.33,450.34,225.63,449.77,225,448.79Z" transform="translate(0)"/><path class="cls-4" d="M234.17,446.33a7.06,7.06,0,0,0-2.31-.76,7.87,7.87,0,0,1-4.38-3.05c-1.08-1.49-.94-3.19-3-3.55-1.47-.26-2-1.2-2.06-2.61-.17-2.29-1.11-4.38-3.32-5.39-2.52-1.15-5.27-.19-7.87.15a99.56,99.56,0,0,1-12.21.61c-2.19,0-5.42,1.8-5.34,4,0,1.31.09,5,1.19,5.76s14.48.59,17,.12c1.25-.23,1.69-3.56,1.69-3.56l2.81,4,6.88.42a15.29,15.29,0,0,0,10.27,6.1C234.09,448.67,234.84,446.79,234.17,446.33Z" transform="translate(0)"/><path class="cls-4" d="M223.92,418.9a.19.19,0,0,1,.13,0,.32.32,0,0,1,.23.13,3.72,3.72,0,0,1,.93,1.88,9.33,9.33,0,0,1-4.71,10.33c-.62.33-1.7.76-2.39.35-.91-.54-.46-.63,0-.93,1.43-.91,4-2.95,4.9-4.42a8,8,0,0,0,.91-4.89,12.08,12.08,0,0,1-.19-2A.57.57,0,0,1,223.92,418.9Z" transform="translate(0)"/><path class="cls-4" d="M198.82,432.69l-1.92-3.37c-1.33-2.33-6.18-.65-6.37,1.78,0,.06-3.08.43-3.41.6a11.31,11.31,0,0,0,.52,2.75c.59,2.25,6.35,1.44,7.89,1.23a6.93,6.93,0,0,0,4.74-2.28Z" transform="translate(0)"/><path class="cls-6" d="M199.8,424.85c.24,0,.33.33.37.58.16,1-.09,3.24-.58,3.53-.64.38-4.66,1-4.91-.55a28.56,28.56,0,0,0,2.85-1.38C198.2,426.55,199.55,424.81,199.8,424.85Z" transform="translate(0)"/><path class="cls-6" d="M188.3,431.42a6.32,6.32,0,0,0-1.06.26c-.11,0-.35.63.17,1.44C188.43,432.74,188.61,431.93,188.3,431.42Z" transform="translate(0)"/><path class="cls-5" d="M262.1,437.27c-.59,2.56,1.12,3.3,3.51,3.81,4,.84,16.5,2.45,16.55,2.45,1.28,0,.4-1.76-.93-2.4C279,440.09,262.94,433.66,262.1,437.27Z" transform="translate(0)"/><path class="cls-7" d="M255.93,419.54c-3.3-2-3.69,4.41-3.93,6.4-.2,1.64.84,3.14,1.83,4.46,2.16,2.85,8.28,11.51,8.28,11.51.2-.14,5.42-5.64,5.42-5.64C266.35,433.62,259.25,421.52,255.93,419.54Z" transform="translate(0)"/><path class="cls-6" d="M282.4,441.38c.38-.19,1.57.82,1.57.82.16.38-1.44,3.41-2.35,4.24a.61.61,0,0,1-1-.41C280.57,445.23,282,441.57,282.4,441.38Z" transform="translate(0)"/><path class="cls-5" d="M241.11,431.58c-2.59-.51-3.27,1.24-3.69,3.63-.71,4-1.9,16.58-1.9,16.63,0,1.28,1.78.34,2.37-1C238.86,448.58,244.74,432.3,241.11,431.58Z" transform="translate(0)"/><path class="cls-7" d="M258.62,424.81c1.86-3.37-4.54-3.53-6.54-3.71-1.64-.15-3.1.95-4.39,2-2.78,2.24-11.23,8.66-11.23,8.66.16.19,5.83,5.23,5.83,5.23C244.89,435.71,256.75,428.19,258.62,424.81Z" transform="translate(0)"/><path class="cls-6" d="M237.69,452c.2.38-.77,1.6-.77,1.6-.37.18-3.46-1.32-4.32-2.2a.61.61,0,0,1,.38-1A14.4,14.4,0,0,1,237.69,452Z" transform="translate(0)"/><path class="cls-9" d="M255.9,403.7l3.63.42a5.76,5.76,0,0,1,5.05,6.37l-2.28,16.15-14.65-3.92,1.88-14A5.75,5.75,0,0,1,255.9,403.7Z" transform="translate(0)"/><path class="cls-5" d="M249.06,411.51c-3.09,1.55-6.91,2.58-7.57,1.28-.46-.92,2.8-3.06,5.89-4.61s6-2.07,6.43-1.15S252.15,410,249.06,411.51Z" transform="translate(0)"/><path class="cls-5" d="M239.44,408.42c-2.32-1.65-5.43-3.23-6-3.84-.75-.85-1.5-1.37-1.85-1.07s-.1,1.25.44,1.88a28.76,28.76,0,0,0,5.13,4.94c2.08,1.49,4.09,2.83,5.17,3,.38.05.52-.23.68-.45C243.62,412,242.25,410.43,239.44,408.42Z" transform="translate(0)"/><path class="cls-9" d="M253.48,405.2a2.51,2.51,0,0,1,1.71,2.53,1,1,0,0,1-.42,1.28,51.28,51.28,0,0,1-7.91,4.05,17.2,17.2,0,0,1-1.87-4.31C246.81,407.42,251.14,405,253.48,405.2Z" transform="translate(0)"/><path class="cls-5" d="M257.34,405.78h0a1.41,1.41,0,0,1-1.18-1.61l.49-3.21,3.12-.42L259,404.6A1.41,1.41,0,0,1,257.34,405.78Z" transform="translate(0)"/><path class="cls-5" d="M258,400.29l1.85.54a.9.9,0,0,0,.5-1.73l-2-.57Z" transform="translate(0)"/><path class="cls-5" d="M259,394.91a2.57,2.57,0,0,0-2.38.53,4,4,0,0,0-1.13,2.53,9.8,9.8,0,0,0-.32,3.32c.35,1.67,2,1.64,3.41,1.33a1.32,1.32,0,0,0,.84-.52,9.79,9.79,0,0,0,1.36-4.29A2.56,2.56,0,0,0,259,394.91Z" transform="translate(0)"/><path class="cls-6" d="M256.14,394.82c-1.78.41-.84,1.76-.43,2.08a2.13,2.13,0,0,0,1.52.21,1.57,1.57,0,0,1,1.45.4c.35.47.91,2.24,2.16,2.19C263.24,399.6,266.66,392.39,256.14,394.82Z" transform="translate(0)"/><path class="cls-5" d="M266.21,406.07c3.42.51,7.14,1.88,6.93,3.32-.16,1-4.06.88-7.48.37s-6.07-1.74-5.92-2.76S262.79,405.56,266.21,406.07Z" transform="translate(0)"/><path class="cls-5" d="M272.29,414.14c.94,2.69,2.58,5.77,2.67,6.59.13,1.13.44,2,.9,1.94s.8-1,.72-1.79a28.6,28.6,0,0,0-1.34-7c-.84-2.41-1.71-4.67-2.5-5.41-.28-.27-.56-.12-.81,0C271,408.78,271.15,410.88,272.29,414.14Z" transform="translate(0)"/><path class="cls-9" d="M259,408.68a2.49,2.49,0,0,1,.07-3.05,1,1,0,0,1,1.08-.8,51.12,51.12,0,0,1,8.79,1.24,17.34,17.34,0,0,1-1,4.61C265.69,410.72,260.78,410.16,259,408.68Z" transform="translate(0)"/><path class="cls-3" d="M104.18,385.64c-1.32-9.28-10.77-16.17-11-25.53-.12-4.47,1.91-8.66,3.46-12.85,2.35-6.35,2.75-12.32-3.18-16.68S73.8,319.7,66.89,325.29a8.27,8.27,0,0,0-3,7c.35,4,3.59,7.45,3.25,11.44-.25,2.94-2.41,5.36-4.76,7.14s-5,3.19-7,5.35-3.25,5.41-2,8.08c.88,1.91,2.87,3.24,3.37,5.28.54,2.26-1,4.52-2.78,6s-3.95,2.51-5.49,4.25c-3.34,3.77-2.72,9.89.2,14s7.58,6.59,12.2,8.58c5.79,2.5,11.9,4.47,18.19,4.77s12.83-1.19,17.82-5S105.06,391.88,104.18,385.64Z" transform="translate(0)"/><path class="cls-4" d="M76.38,423.24a.67.67,0,0,1-.66-.57c-.14-1.07-.13-5.44-.1-12.07,0-13,.12-32.72-1-45.83a.66.66,0,0,1,1.31-.11c1.11,13.17,1,32.89,1,45.95,0,6.09,0,10.91.09,11.88a.65.65,0,0,1-.56.74Z" transform="translate(0)"/><path class="cls-4" d="M75.87,375.08a.66.66,0,0,1-.43-1.16l5.23-4.6a.66.66,0,1,1,.88,1l-5.24,4.6A.67.67,0,0,1,75.87,375.08Z" transform="translate(0)"/><path class="cls-4" d="M75.84,382.79a.68.68,0,0,1-.46-.19l-5.65-5.44a.66.66,0,0,1,.92-1l5.65,5.44a.65.65,0,0,1,0,.93A.64.64,0,0,1,75.84,382.79Z" transform="translate(0)"/><path class="cls-4" d="M76.38,388.84a.66.66,0,0,1-.37-1.21l9.23-6.25a.67.67,0,0,1,.92.18.66.66,0,0,1-.17.92l-9.24,6.24A.65.65,0,0,1,76.38,388.84Z" transform="translate(0)"/><path class="cls-4" d="M76.06,395.53a.68.68,0,0,1-.31-.08L65.32,390a.66.66,0,0,1,.61-1.17l10.44,5.5a.67.67,0,0,1,.27.9A.66.66,0,0,1,76.06,395.53Z" transform="translate(0)"/><path class="cls-3" d="M633.29,400.58c1.81-7.84-7.94-13.15-11.11-20.55-2.42-5.66-.74-12.11-.33-18.26s-1.43-13.58-7.28-15.49c-5.54-1.8-11.46,2.8-13.45,8.28s-1.2,11.5-.83,17.31.15,12.11-3.38,16.74c-3.38,4.43-9.76,7.6-9.44,13.16.28,4.89,5.87,8,6.92,12.74,1.28,5.86-4.59,10.74-6.15,16.53-1.74,6.47,2.35,13.36,8,17,5.83,3.79,18.34,8.65,25.35,6.77,8.32-2.24,13.9-13.08,10.58-21-2.77-6.62-10.24-12.15-8.5-19.11C625,409.11,632,406.21,633.29,400.58Z" transform="translate(0)"/><path class="cls-4" d="M610.49,464.6h0a.67.67,0,0,1-.63-.69,429.5,429.5,0,0,0-1-51.26.66.66,0,0,1,.61-.71.65.65,0,0,1,.71.6,432.2,432.2,0,0,1,1,51.42A.67.67,0,0,1,610.49,464.6Z" transform="translate(0)"/><path class="cls-4" d="M610.84,442.5a.65.65,0,0,1-.58-.34.66.66,0,0,1,.26-.9l9.35-5.14a.66.66,0,0,1,.9.26.67.67,0,0,1-.26.9l-9.36,5.14A.6.6,0,0,1,610.84,442.5Z" transform="translate(0)"/><path class="cls-4" d="M610.49,424.32a.66.66,0,0,1-.42-1.17c1.74-1.39,3.73-2.72,5.09-3.59a.66.66,0,1,1,.71,1.11,58.8,58.8,0,0,0-5,3.51A.64.64,0,0,1,610.49,424.32Z" transform="translate(0)"/><path class="cls-4" d="M609.71,419.23a.64.64,0,0,1-.43-.16c-.4-.35-1.17-1-2.06-1.69s-2.11-1.7-3-2.43a.65.65,0,0,1-.07-.93.66.66,0,0,1,.93-.08c.85.73,2,1.62,2.94,2.41s1.68,1.36,2.1,1.72a.66.66,0,0,1-.44,1.16Z" transform="translate(0)"/><path class="cls-4" d="M610.17,432.66a.64.64,0,0,1-.3-.08l-6.33-3.34a.67.67,0,0,1-.27-.9.66.66,0,0,1,.89-.27l6.32,3.34a.65.65,0,0,1,.28.89A.66.66,0,0,1,610.17,432.66Z" transform="translate(0)"/><path class="cls-3" d="M695.14,243.79c-.07,2.76.23,5.58-.31,8.43a11.07,11.07,0,0,1-6.27,8c-6.2,3-13.6,4-14.44,11.32-.82,7.18,7.22,14.11,14.22,16.58,15,5.31,42.15,5.94,50.27-9.38a11.67,11.67,0,0,0-.84-12.13c-2.81-4.24-7.6-5.59-11.4-8.82-7.29-6.2-3-16-7.81-23.25-2.76-4.19-8.53-5.26-13.49-3.76A13.59,13.59,0,0,0,695.14,243.79Z" transform="translate(0)"/><path class="cls-4" d="M709.45,287.64a.69.69,0,0,1-.34-.09l-14-8.43a.66.66,0,0,1-.22-.91.67.67,0,0,1,.91-.23l13.94,8.43a.68.68,0,0,1,.23.91A.67.67,0,0,1,709.45,287.64Z" transform="translate(0)"/><path class="cls-4" d="M709,279a.63.63,0,0,1-.34-.1l-3.49-2.11-.08,0h0l-.05,0-2.8-1.69a.66.66,0,0,1,.69-1.13l2.89,1.75.16.1,3.37,2a.66.66,0,0,1,.22.91A.65.65,0,0,1,709,279Z" transform="translate(0)"/><path class="cls-4" d="M709.71,284.58a.66.66,0,0,1-.35-1.22l14.21-8.59a.66.66,0,0,1,.68,1.14l-14.2,8.58A.72.72,0,0,1,709.71,284.58Z" transform="translate(0)"/><path class="cls-4" d="M709.78,291.21a.66.66,0,0,1-.66-.64l-.66-17.48a.66.66,0,0,1,.64-.68.65.65,0,0,1,.68.64l.66,17.47a.67.67,0,0,1-.64.69Z" transform="translate(0)"/><path class="cls-3" d="M319.2,43.23c2.78,14.65,12.73,18.88,28.88,18.82S386.42,47.25,361.23,16C337.4-13.67,317.64,35,319.2,43.23Z" transform="translate(0)"/><path class="cls-4" d="M347.09,59.17a.6.6,0,0,1-.3-.07c-1.23-.63-2.88-1.55-4.63-2.52s-3.5-1.95-4.87-2.66a.66.66,0,0,1,.61-1.17c1.38.71,3.17,1.71,4.91,2.67s3.38,1.88,4.58,2.5a.67.67,0,0,1,.29.89A.66.66,0,0,1,347.09,59.17Z" transform="translate(0)"/><path class="cls-4" d="M346.94,50a.59.59,0,0,1-.29-.07c-.52-.25-2.52-1.4-4.66-2.81a.66.66,0,0,1-.19-.92.67.67,0,0,1,.92-.19c2.06,1.36,4,2.5,4.5,2.73a.66.66,0,0,1-.28,1.26Z" transform="translate(0)"/><path class="cls-4" d="M347.34,53.37a.64.64,0,0,1-.56-.32.65.65,0,0,1,.22-.9l7.94-4.8a.66.66,0,1,1,.69,1.13l-7.95,4.8A.67.67,0,0,1,347.34,53.37Z" transform="translate(0)"/><path class="cls-4" d="M347.41,62.74a.65.65,0,0,1-.65-.64L346,41.05a.66.66,0,1,1,1.32,0l.8,21a.66.66,0,0,1-.64.68Z" transform="translate(0)"/><path class="cls-3" d="M234,155.32a29.59,29.59,0,0,1,1,3.63c3.68,18.81-22.47,26.78-14.13,46.83,4.23,10.19,16,16.23,26.68,16.69,12.4.53,26-6.39,28.8-19.29a20.15,20.15,0,0,0-2.4-14.89c-2.75-4.36-8-7.15-9.39-12.42-1.48-5.67,1.18-12.93.9-18.93-.28-6.17-1.9-12.45-5.62-17.39s-9.77-8.35-15.94-7.9-12,5.34-12.65,11.49C230.78,147.33,232.62,151.28,234,155.32Z" transform="translate(0)"/><path class="cls-4" d="M248.94,223a.66.66,0,0,1-.65-.57c-.15-1.06-.13-5.44-.11-12.06,0-13,.13-23.52-1-36.63a.66.66,0,1,1,1.32-.11c1.11,13.17,1,23.69,1,36.74,0,6.1,0,10.91.1,11.88a.66.66,0,0,1-.57.75Z" transform="translate(0)"/><path class="cls-4" d="M248.75,185.6a.68.68,0,0,1-.38-.12.66.66,0,0,1-.16-.92,78.34,78.34,0,0,1,5-6.18.66.66,0,0,1,1,.88c-2.9,3.26-4.86,6-4.88,6.06A.64.64,0,0,1,248.75,185.6Z" transform="translate(0)"/><path class="cls-4" d="M248.4,193a.66.66,0,0,1-.5-.23l-5.65-6.69a.66.66,0,1,1,1-.86l5.65,6.69a.68.68,0,0,1-.08.94A.7.7,0,0,1,248.4,193Z" transform="translate(0)"/><path class="cls-4" d="M249.45,198.48a.68.68,0,0,1-.43-.15.66.66,0,0,1-.08-.93l5.64-6.7a.69.69,0,0,1,.94-.08.68.68,0,0,1,.08.94L250,198.25A.67.67,0,0,1,249.45,198.48Z" transform="translate(0)"/><path class="cls-4" d="M248.62,204.53a.66.66,0,0,1-.42-.15c-.29-.24-7.07-5.87-7.9-6.74a.67.67,0,0,1,0-.94.65.65,0,0,1,.93,0c.65.67,5.85,5,7.8,6.63a.66.66,0,0,1,.08.93A.65.65,0,0,1,248.62,204.53Z" transform="translate(0)"/><path class="cls-3" d="M515.68,131.53a35,35,0,0,0-1.72-3.41c-4.2-7.36-10.42-14.55-17.61-14.25C489,114.17,488,125.06,483,130c-2.39,2.34-5.1,1.49-7.82,1.68a10.91,10.91,0,0,0-7.8,4.38A14.73,14.73,0,0,0,466,150.74a21.92,21.92,0,0,0,9.75,10.15c7.74,4.36,16.87,4.87,25,3s18-6.79,17.67-20.58A32,32,0,0,0,515.68,131.53Z" transform="translate(0)"/><path class="cls-4" d="M491.54,161.25a.67.67,0,0,1-.34-.09l-13.95-8.43a.66.66,0,0,1-.22-.91.65.65,0,0,1,.9-.22L491.88,160a.65.65,0,0,1,.22.9A.64.64,0,0,1,491.54,161.25Z" transform="translate(0)"/><path class="cls-4" d="M491.11,152.64a.69.69,0,0,1-.34-.09l-3.5-2.12-.07,0h0l-.06,0-2.79-1.68a.66.66,0,0,1,.68-1.14l2.9,1.75.16.1,3.36,2a.66.66,0,0,1,.23.91A.67.67,0,0,1,491.11,152.64Z" transform="translate(0)"/><path class="cls-4" d="M491.79,158.2a.66.66,0,0,1-.34-1.23l14.2-8.58a.66.66,0,1,1,.69,1.13l-14.2,8.58A.64.64,0,0,1,491.79,158.2Z" transform="translate(0)"/><path class="cls-4" d="M491.87,164.82a.66.66,0,0,1-.66-.64l-.66-17.47a.66.66,0,0,1,.63-.69.65.65,0,0,1,.69.64l.66,17.47a.66.66,0,0,1-.64.69Z" transform="translate(0)"/><path class="cls-3" d="M114,105.71c0-.08.05-.17.07-.26,1.32-5.2.5-10.67-3.38-14.52-10.49-10.39-32.87.52-42.72,7.19A23,23,0,0,0,59,108.65c-2.64,7-.46,15.21,4.33,20.84,7.18,8.44,19.86,11.81,30.51,11.2a23.91,23.91,0,0,0,12.24-4.19,12.34,12.34,0,0,0,4.84-6.23c1.25-4-.28-8.11-.51-12.17C110.17,113.49,112.8,110,114,105.71Z" transform="translate(0)"/><path class="cls-4" d="M86.66,137.2a.7.7,0,0,1-.34-.1l-13.95-8.43a.66.66,0,1,1,.69-1.13L87,136a.67.67,0,0,1,.23.91A.69.69,0,0,1,86.66,137.2Z" transform="translate(0)"/><path class="cls-4" d="M86.23,128.58a.72.72,0,0,1-.34-.09l-3.49-2.11-.08,0h0l0,0-2.8-1.69a.66.66,0,1,1,.69-1.13l2.89,1.75.16.09,3.37,2a.66.66,0,0,1-.35,1.22Z" transform="translate(0)"/><path class="cls-4" d="M86.92,134.14a.65.65,0,0,1-.57-.32.66.66,0,0,1,.22-.91l14.21-8.58a.65.65,0,0,1,.9.22.66.66,0,0,1-.22.91L87.26,134A.63.63,0,0,1,86.92,134.14Z" transform="translate(0)"/><path class="cls-4" d="M87,140.76a.65.65,0,0,1-.66-.63l-.66-17.48a.67.67,0,0,1,.64-.69.65.65,0,0,1,.68.64l.66,17.48a.66.66,0,0,1-.64.68Z" transform="translate(0)"/><rect class="cls-4" x="359.27" y="149.33" width="3.13" height="68.12" transform="translate(-0.27 0.52) rotate(-0.08)"/><rect class="cls-4" x="379.41" y="149.33" width="3.13" height="68.12" transform="translate(-0.27 0.55) rotate(-0.08)"/><rect class="cls-4" x="360.84" y="154.95" width="19.58" height="3.13"/><rect class="cls-4" x="360.84" y="167.68" width="19.58" height="3.13"/><rect class="cls-4" x="360.84" y="180.42" width="19.58" height="3.13"/><rect class="cls-4" x="360.84" y="193.15" width="19.58" height="3.13"/><rect class="cls-4" x="360.84" y="205.89" width="19.58" height="3.13"/><path class="cls-4" d="M349,149c0,22.81-64,45.63-64,68.44h32c0-22.81,64-45.63,64-68.44Z" transform="translate(0)"/><path class="cls-5" d="M329.06,170.85c-1.76-2-3.35-1-5.13.69A143.86,143.86,0,0,0,314,182.39l-.68.87c-.72,1.06.94,1.43,2.22.69C317.65,182.74,331.54,173.61,329.06,170.85Z" transform="translate(0)"/><path class="cls-6" d="M315.9,183.73s-.81,1.12-1.56,1.21-2.12-1.59-3.14-3.16c-.3-.45-.1-.94.43-.82C312.41,181.14,315.81,183.31,315.9,183.73Z" transform="translate(0)"/><path class="cls-5" d="M328.58,172.68c-.19-2.63-2.05-2.82-4.48-2.61-4.05.37-16.49,2.52-16.54,2.53-1.22.39.14,1.81,1.6,2C311.58,175,328.84,176.38,328.58,172.68Z" transform="translate(0)"/><path class="cls-6" d="M347.17,175.89c3.46-1.69-1.68-5.5-3.21-6.8-1.26-1.06-3.09-1-4.74-.89-3.56.24-9.61.28-13.18.52l1,5.53C329.9,174.7,343.7,177.58,347.17,175.89Z" transform="translate(0)"/><path class="cls-7" d="M345.39,150.94l3.53.95a5.75,5.75,0,0,1,4.06,7l-3.16,16.5-15.38-6.89L338.35,155A5.74,5.74,0,0,1,345.39,150.94Z" transform="translate(0)"/><path class="cls-6" d="M308.93,174.51c-.05.43-1.55.86-1.55.86-.41-.06-2.07-3.06-2.26-4.28a.6.6,0,0,1,.9-.64A13.94,13.94,0,0,1,308.93,174.51Z" transform="translate(0)"/><path class="cls-5" d="M346.51,153.2h0a1.4,1.4,0,0,1-.93-1.76l.95-3.1,3.15,0-1.4,3.89A1.41,1.41,0,0,1,346.51,153.2Z" transform="translate(0)"/><path class="cls-5" d="M347.91,147.87l1.76.8a.91.91,0,0,0,1.19-.45.9.9,0,0,0-.44-1.19l-1.86-.85Z" transform="translate(0)"/><path class="cls-5" d="M349.76,142.7a2.59,2.59,0,0,0-2.43.18,4,4,0,0,0-1.48,2.33,9.59,9.59,0,0,0-.81,3.24c.1,1.7,1.78,1.92,3.18,1.82a1.4,1.4,0,0,0,.91-.39,10,10,0,0,0,2-4A2.58,2.58,0,0,0,349.76,142.7Z" transform="translate(0)"/><path class="cls-6" d="M350.09,145.32c-.22-.88-1.26-1.21-2.14-1.46-4-1.13-.69-4,1.21-4.42,2.13-.53,4.4-1.08,6.57,1.17s-4.18,7.28-4.89,6.84C349.44,146.59,350.34,146.31,350.09,145.32Z" transform="translate(0)"/><path class="cls-5" d="M347.18,152.39c-.81-3.36-.93-7.32.49-7.66,1-.24,2.33,3.43,3.14,6.79s.64,6.29-.37,6.53S348,155.75,347.18,152.39Z" transform="translate(0)"/><path class="cls-5" d="M351.78,143.36c1.78-2.22,3.54-5.24,4.18-5.74.89-.71,1.45-1.43,1.17-1.79s-1.24-.17-1.9.33A28.62,28.62,0,0,0,350,141c-1.6,2-3.06,3.93-3.27,5-.08.38.19.53.4.7C347.93,147.33,349.61,146.05,351.78,143.36Z" transform="translate(0)"/><path class="cls-7" d="M351.44,157.59c-.26.83-1.14.76-1.87.28a6.07,6.07,0,0,1-2.06-2.43,21.66,21.66,0,0,1-1.34-5.54c.18-.15,3.93-1,4.63-.83C351.68,151.14,352.14,155.36,351.44,157.59Z" transform="translate(0)"/><path class="cls-5" d="M339.36,148.94c-.8-3.36-.92-7.32.49-7.66,1-.24,2.34,3.43,3.14,6.79s.64,6.28-.36,6.52S340.16,152.3,339.36,148.94Z" transform="translate(0)"/><path class="cls-5" d="M344,139.91c1.79-2.22,3.54-5.24,4.18-5.75.9-.7,1.45-1.42,1.18-1.78s-1.24-.17-1.91.33a28.35,28.35,0,0,0-5.22,4.83c-1.61,2-3.07,3.92-3.28,5-.07.38.19.53.4.7C340.12,143.88,341.8,142.6,344,139.91Z" transform="translate(0)"/><path class="cls-7" d="M343.62,154.14c-.26.83-1.14.76-1.86.28a6.17,6.17,0,0,1-2.07-2.43,21.21,21.21,0,0,1-1.33-5.55c.18-.14,3.93-1,4.63-.82C343.86,147.69,344.32,151.91,343.62,154.14Z" transform="translate(0)"/><polygon class="cls-4" points="530.43 150.3 537.82 177.89 538.3 179.7 548.45 217.55 550.04 217.12 539.9 179.28 539.41 177.46 532.02 149.88 530.43 150.3"/><polygon class="cls-4" points="532.08 150.3 524.69 177.89 524.21 179.7 514.06 217.55 512.47 217.12 522.61 179.28 523.1 177.46 530.49 149.88 532.08 150.3"/><polygon class="cls-4" points="593.43 150.3 600.83 177.89 601.31 179.7 611.45 217.55 613.05 217.12 602.91 179.28 602.42 177.46 595.03 149.88 593.43 150.3"/><polygon class="cls-4" points="595.09 150.3 587.7 177.89 587.21 179.7 577.07 217.55 575.48 217.12 585.62 179.28 586.11 177.46 593.5 149.88 595.09 150.3"/><polygon class="cls-4" points="561.19 201.2 545.92 201.2 538.9 206.19 554.16 206.19 561.19 201.2"/><rect class="cls-4" x="523.11" y="176.67" width="55.18" height="0.66" transform="translate(240.68 665.34) rotate(-75.41)"/><rect class="cls-4" x="536.43" y="176.67" width="55.18" height="0.66" transform="translate(250.63 678.23) rotate(-75.41)"/><rect class="cls-4" x="562.37" y="118.77" width="1.65" height="63.88" transform="translate(713.91 -412.48) rotate(90)"/><rect class="cls-4" x="530.49" y="149.88" width="1.54" height="0.84"/><path class="cls-5" d="M539,201c-2-1.67-3.46-.46-5,1.44a144.66,144.66,0,0,0-8.24,12.19l-.54,1c-.57,1.16,1.13,1.28,2.29.36C529.49,214.48,541.89,203.4,539,201Z" transform="translate(0)"/><path class="cls-6" d="M527.91,215.72s-.63,1.22-1.36,1.42-2.33-1.25-3.58-2.66c-.35-.41-.23-.91.31-.87C524.08,213.66,527.76,215.32,527.91,215.72Z" transform="translate(0)"/><path class="cls-5" d="M538.83,202.93c-.57-2.58-2.44-2.5-4.81-1.93-3.95,1-15.94,4.91-16,4.94-1.15.56.4,1.76,1.88,1.76C522.36,207.69,539.63,206.54,538.83,202.93Z" transform="translate(0)"/><path class="cls-6" d="M557.69,203.37c3.17-2.18-2.47-5.2-4.17-6.25-1.41-.87-3.21-.55-4.82-.19-3.49.76-16.13,3.75-16.13,3.75,0,.23,5.08,6.24,5.08,6.24C540.54,207,554.51,205.55,557.69,203.37Z" transform="translate(0)"/><path class="cls-8" d="M552.27,179l3.63.42a5.74,5.74,0,0,1,5,6.37l-2.27,16.14L544,198l1.89-14A5.74,5.74,0,0,1,552.27,179Z" transform="translate(0)"/><path class="cls-6" d="M519.66,207.62c0,.43-1.4,1.08-1.4,1.08-.41,0-2.5-2.72-2.87-3.9a.6.6,0,0,1,.8-.77A14,14,0,0,1,519.66,207.62Z" transform="translate(0)"/><path class="cls-5" d="M564.2,183.29c2.91,1.86,5.75,4.63,5,5.86-.55.86-4.06-.85-7-2.71s-4.83-4.08-4.27-4.95S561.28,181.43,564.2,183.29Z" transform="translate(0)"/><path class="cls-5" d="M563.66,190.37c-2.32,1.66-4.82,4.09-5.57,4.41-1.05.44-1.78,1-1.62,1.4s1.15.5,1.93.2a29.15,29.15,0,0,0,6.33-3.25c2.08-1.48,4-2.95,4.5-3.92.18-.34,0-.57-.2-.79C568.43,187.59,566.47,188.36,563.66,190.37Z" transform="translate(0)"/><path class="cls-8" d="M557.52,182.51c-.39-.78-.55-2.4.3-2.56,0,0,3.11,1,4,1.38a20.87,20.87,0,0,1,4.81,3.06,17.1,17.1,0,0,1-2.75,3.81A15.7,15.7,0,0,1,557.52,182.51Z" transform="translate(0)"/><path class="cls-5" d="M543.32,178.42c-2.45-2.44-4.63-5.75-3.6-6.78.73-.73,3.79,1.69,6.24,4.14s3.84,5,3.11,5.74S545.77,180.86,543.32,178.42Z" transform="translate(0)"/><path class="cls-5" d="M543.23,168.31c.84-2.72,1.35-6.17,1.76-6.88.57-1,.83-1.85.44-2.09s-1.22.3-1.65,1a28.81,28.81,0,0,0-3.08,6.42c-.76,2.44-1.4,4.77-1.21,5.84.07.38.38.43.64.51C541.11,173.42,542.2,171.61,543.23,168.31Z" transform="translate(0)"/><path class="cls-8" d="M550.7,180.63c.21.84-1,2.45-1.87,2.42a1,1,0,0,1-1.34,0,51.75,51.75,0,0,1-6.33-6.23,16.87,16.87,0,0,1,3.5-3.13C546.5,175,550.12,178.36,550.7,180.63Z" transform="translate(0)"/><path class="cls-5" d="M553.71,181h0a1.41,1.41,0,0,1-1.19-1.61l.5-3.2,3.11-.42-.81,4.05A1.41,1.41,0,0,1,553.71,181Z" transform="translate(0)"/><path class="cls-5" d="M554.31,175.54l1.85.53a.91.91,0,0,0,1.12-.61.89.89,0,0,0-.62-1.11l-1.95-.57Z" transform="translate(0)"/><path class="cls-5" d="M555.38,170.16a2.55,2.55,0,0,0-2.37.53,4.05,4.05,0,0,0-1.14,2.53,9.78,9.78,0,0,0-.32,3.32c.35,1.66,2,1.64,3.41,1.33a1.39,1.39,0,0,0,.85-.52,10.06,10.06,0,0,0,1.36-4.29A2.56,2.56,0,0,0,555.38,170.16Z" transform="translate(0)"/><path class="cls-6" d="M552.75,169.54a2.94,2.94,0,0,0-1,1.18,1.28,1.28,0,0,0,.31,1.43,2.13,2.13,0,0,0,1.52.2,1.58,1.58,0,0,1,1.45.41c.34.47.12,1.17.41,1.67a1.26,1.26,0,0,0,1.62.34,3.62,3.62,0,0,0,1.27-1.28,11.84,11.84,0,0,0,1.56-2.71C561.66,165.75,554.82,167.89,552.75,169.54Z" transform="translate(0)"/><path class="cls-3" d="M660.42,88.7c-2.53,6.23-3.92,13.28-4.92,17.94-1.78,8.29-6.83,10.56-12.1,16.47-6.2,6.94-7.11,16.57-3.59,25,4.84,11.63,18.31,18.51,30.44,19,14.15.61,29.67-7.29,32.87-22a23,23,0,0,0-2.74-17c-2.87-4.54-8.47-7.67-10-12.89-3.73-12.75,7.55-33.37-10.37-39.19C669.8,72.8,664,80,660.42,88.7Z" transform="translate(0)"/><path class="cls-4" d="M671.76,167.23a.67.67,0,0,1-.66-.57c-.15-1.09-.2-5-.28-10.86-.15-11-.38-17.85-1.47-30.77a.66.66,0,0,1,.61-.71.65.65,0,0,1,.71.6c1.09,13,1.32,19.85,1.47,30.86.08,5.63.13,9.69.27,10.7a.65.65,0,0,1-.56.74Z" transform="translate(0)"/><path class="cls-4" d="M671.76,147.56a.66.66,0,0,1-.34-1.23c1.31-.77,3.09-1.85,4.71-2.83s3.27-2,3.88-2.32a.66.66,0,0,1,.9.25.67.67,0,0,1-.24.9c-.6.34-2.18,1.29-3.85,2.3s-3.41,2.06-4.73,2.84A.66.66,0,0,1,671.76,147.56Z" transform="translate(0)"/><path class="cls-4" d="M670.76,137.57a.64.64,0,0,1-.37-.11l-5.58-3.72a.66.66,0,0,1,.74-1.1l5.58,3.72a.66.66,0,0,1-.37,1.21Z" transform="translate(0)"/><path class="cls-4" d="M671.16,154.26a.68.68,0,0,1-.31-.08l-9.8-5.2a.66.66,0,0,1,.61-1.17l9.81,5.2a.66.66,0,0,1,.27.89A.65.65,0,0,1,671.16,154.26Z" transform="translate(0)"/><path class="cls-3" d="M592.14,229.79a2.56,2.56,0,0,0-1.74-.86,2.53,2.53,0,0,0-1.84.63l-3.51,3.08-4-3.84a2.54,2.54,0,0,0-3.53,3.65l5.65,5.44a2.53,2.53,0,0,0,1.44.69l.36,0h.24l0,0a2.55,2.55,0,0,0,1.38-.61l5.24-4.6a2.55,2.55,0,0,0,.23-3.58Z" transform="translate(0)"/><path class="cls-3" d="M517.8,36.32a2.54,2.54,0,0,0-3.58-.24l-3.51,3.08-4-3.83A2.54,2.54,0,0,0,503.21,39l5.64,5.43a2.54,2.54,0,0,0,1.45.7l.35,0h.3a2.55,2.55,0,0,0,1.38-.61l5.23-4.61a2.48,2.48,0,0,0,.86-1.74A2.54,2.54,0,0,0,517.8,36.32Z" transform="translate(0)"/><path class="cls-3" d="M627.65,48.67a2.48,2.48,0,0,0-1.74-.86,2.54,2.54,0,0,0-1.84.63l-3.5,3.08-4-3.84a2.54,2.54,0,0,0-3.58.06,2.51,2.51,0,0,0-.72,1.81,2.54,2.54,0,0,0,.78,1.78l5.64,5.44a2.56,2.56,0,0,0,1.44.69l.36,0h.25l0,0a2.49,2.49,0,0,0,1.37-.61l5.24-4.6a2.53,2.53,0,0,0,.23-3.58Z" transform="translate(0)"/><path class="cls-3" d="M226.53,36.8a2.51,2.51,0,0,0-1.74-.85,2.48,2.48,0,0,0-1.84.62l-3.5,3.08-4-3.84a2.54,2.54,0,0,0-3.59.07,2.52,2.52,0,0,0,.07,3.58l5.64,5.44a2.44,2.44,0,0,0,1.44.69l.36,0h.3a2.57,2.57,0,0,0,1.37-.62l5.24-4.6a2.56,2.56,0,0,0,.86-1.74A2.53,2.53,0,0,0,226.53,36.8Z" transform="translate(0)"/><path class="cls-3" d="M50.84,85.82A2.52,2.52,0,0,0,49.09,85a2.48,2.48,0,0,0-1.83.63l-3.51,3.07-4-3.83a2.54,2.54,0,0,0-3.52,3.65l5.64,5.44a2.59,2.59,0,0,0,1.45.69l.35,0h.25l.05,0A2.55,2.55,0,0,0,45.37,94l5.23-4.6a2.52,2.52,0,0,0,.86-1.75A2.55,2.55,0,0,0,50.84,85.82Z" transform="translate(0)"/><path class="cls-3" d="M362,333.72a2.53,2.53,0,0,0-3.58-.23l-3.5,3.07-4-3.83a2.54,2.54,0,1,0-3.52,3.65l5.64,5.44a2.56,2.56,0,0,0,1.44.69l.36,0h.25l.05,0a2.55,2.55,0,0,0,1.37-.61l5.24-4.61a2.52,2.52,0,0,0,.23-3.57Z" transform="translate(0)"/><path class="cls-3" d="M412.54,185.83a2.56,2.56,0,0,0-1.74-.86,2.53,2.53,0,0,0-1.84.63l-3.5,3.08-4-3.84a2.54,2.54,0,0,0-4.3,1.87,2.5,2.5,0,0,0,.78,1.78l5.64,5.44a2.53,2.53,0,0,0,1.44.69l.36,0h.24l.05,0a2.55,2.55,0,0,0,1.38-.61l5.24-4.6a2.55,2.55,0,0,0,.23-3.58Z" transform="translate(0)"/><path class="cls-3" d="M41.8,317.24a2.56,2.56,0,0,0-1.74-.86,2.53,2.53,0,0,0-1.84.63l-3.5,3.08-4-3.84a2.54,2.54,0,0,0-4.3,1.87,2.5,2.5,0,0,0,.78,1.78l5.64,5.44a2.56,2.56,0,0,0,1.44.69l.36,0h.24l.06,0a2.55,2.55,0,0,0,1.37-.61l5.24-4.6a2.56,2.56,0,0,0,.86-1.75A2.52,2.52,0,0,0,41.8,317.24Z" transform="translate(0)"/></g></svg>